<svg width="82" height="36" viewBox="0 0 82 36" fill="none" xmlns="http://www.w3.org/2000/svg">
<g clip-path="url(#clip0_1787_263)">
<path d="M10.2808 4.32865C3.27512 11.504 2.96116 11.8559 1.82843 13.6158C0.498696 15.6906 -0.0676708 17.4751 0.0185154 19.2967C0.104702 21.0875 0.591038 22.3904 1.53293 23.3413C2.69644 24.5208 4.17392 25.0703 6.47632 25.1753L7.31972 25.2124L7.19659 25.447C7.13503 25.5767 7.07963 25.799 7.07963 25.941C7.07963 26.1633 7.11656 26.2374 7.31972 26.435C7.63368 26.7252 8.05846 26.8672 9.3574 27.1019C10.6564 27.3304 11.272 27.4909 11.8445 27.7256C12.497 27.9973 13.5559 28.7197 14.0792 29.2446L14.5286 29.6954L14.9041 29.3002C15.6675 28.5036 16.8987 27.7626 17.976 27.4539C18.2654 27.3736 19.0103 27.2192 19.632 27.1081C20.26 26.9969 20.8817 26.8672 21.0172 26.824C21.4296 26.6758 21.7867 26.435 21.8913 26.2312C22.0145 25.9904 21.9775 25.6137 21.8052 25.3791L21.682 25.2124L22.55 25.1753C24.8217 25.0765 26.213 24.5763 27.3826 23.4401C28.3738 22.4892 28.8478 21.3468 28.9955 19.5684C29.1802 17.3084 28.3861 15.141 26.3853 12.4549C25.4742 11.2323 25.191 10.9297 18.45 4.02608C16.2831 1.81544 14.504 5.72205e-06 14.504 0.00617981C14.4978 0.00617981 12.6017 1.95129 10.2808 4.32865ZM15.2181 2.08097C15.6059 2.48234 16.6955 3.61236 17.6374 4.60035C18.5793 5.58217 20.1184 7.16913 21.0541 8.12007C22.8394 9.94169 23.6089 10.763 24.4154 11.7324C26.8286 14.6347 27.9305 17.0305 27.8074 19.1115C27.6904 20.9702 27.1118 22.199 25.9236 23.119C24.9879 23.8415 23.5843 24.3417 22.076 24.4775L21.6574 24.5208L21.879 24.2614C22.1622 23.928 22.2176 23.6439 22.0637 23.3537C21.8421 22.94 21.4296 22.8782 20.5862 23.1376C19.5643 23.4463 18.567 23.3352 17.4527 22.7918C16.7017 22.4213 16.24 22.0199 15.8398 21.3901C15.6798 21.1307 15.5382 20.9516 15.5259 20.9825C15.4889 21.0937 15.6982 21.8655 15.8583 22.199C16.32 23.1931 17.1388 23.9033 18.253 24.2799C18.7455 24.4528 18.7455 24.4528 18.4685 24.4528C17.9514 24.4528 17.0834 24.5887 16.8371 24.6998C16.7017 24.7616 16.5109 24.8789 16.4062 24.9654L16.2215 25.1197L16.4308 25.342C16.7879 25.7125 17.2003 25.8299 18.093 25.8299L18.8564 25.8237L18.2284 26.0645C17.0157 26.5214 16.0984 27.1328 15.0703 28.164C14.7379 28.4974 14.467 28.7444 14.467 28.7197C14.467 28.695 14.2639 28.4666 14.0238 28.2134C13.008 27.1698 11.8999 26.4473 10.6317 25.9904L10.1269 25.8113L10.6194 25.836C11.5552 25.8916 12.3062 25.694 12.6817 25.2865L12.8356 25.1259L12.6817 25.0024C12.3124 24.6998 11.8999 24.5702 11.1181 24.4961L10.3609 24.4281L10.7795 24.2861C12.2139 23.8045 13.2112 22.6683 13.4759 21.2233C13.5067 21.0628 13.5128 20.9331 13.4882 20.9331C13.4697 20.9331 13.3589 21.0998 13.2419 21.3036C13.0203 21.6926 12.497 22.2484 12.1031 22.5139C11.432 22.9708 10.4101 23.2919 9.57903 23.2981C9.12963 23.3043 8.908 23.2734 8.46476 23.1376C7.84299 22.9461 7.52287 22.9276 7.26431 23.0635C6.83338 23.2858 6.77797 23.7057 7.10425 24.1997L7.31972 24.5146L6.96882 24.4775C5.71296 24.3479 4.82032 24.1009 3.93999 23.6439C2.59179 22.94 1.76686 21.9026 1.40365 20.47C1.28668 20.0007 1.26822 19.7537 1.26822 18.8336C1.26822 17.9012 1.28668 17.6789 1.40365 17.2343C1.88999 15.4436 3.01656 13.5973 5.10966 11.152C5.40515 10.8 6.75951 9.37976 8.1077 7.9904C9.46206 6.60103 11.4505 4.5386 12.534 3.41476C13.6113 2.28474 14.504 1.3585 14.5101 1.3585C14.5163 1.3585 14.8364 1.68577 15.2181 2.08097Z" fill="#BE9F56"/>
<path d="M14.1099 2.92693C13.8944 3.21715 13.6113 3.66175 13.482 3.92727C12.971 4.94614 12.9895 5.44631 13.6297 7.19382C13.876 7.85454 13.8698 7.86072 13.5189 7.36672C12.971 6.59485 12.2569 6.32315 11.4751 6.58868C11.1303 6.706 10.644 7.16295 10.4162 7.57667L10.2808 7.83602L10.5085 7.76809C10.8595 7.66929 11.6167 7.73722 11.9737 7.89777C12.9525 8.33001 13.5435 9.22538 13.8144 10.6827C13.9498 11.3743 13.9375 11.5225 13.7898 11.189C13.6174 10.8062 13.1003 10.2875 12.7248 10.1208C12.2938 9.92933 11.6043 9.92315 11.2042 10.1022L10.921 10.2319L10.9456 9.85523C10.9826 9.15746 10.607 8.76844 9.88062 8.76844C9.2096 8.76844 8.79098 9.05866 8.16305 9.9602C7.67056 10.6641 7.03648 11.084 6.19924 11.2631C5.96531 11.3063 5.76831 11.3619 5.74984 11.3804C5.70059 11.4298 6.21771 11.7139 6.62401 11.8621C7.36275 12.1338 8.68017 12.0041 9.34504 11.5966L9.55435 11.4669L9.44353 11.6768C9.35735 11.8312 9.32657 12.0226 9.32657 12.387C9.32657 12.8192 9.35119 12.9304 9.51125 13.2453C9.73287 13.6775 10.0653 13.9184 10.5886 14.0295C11.2165 14.1592 11.8013 13.9554 12.1215 13.4923C12.2692 13.27 12.3554 12.7204 12.2815 12.4302L12.2384 12.2573L12.1215 12.4796C11.8691 12.9798 11.395 13.165 10.9518 12.9304C10.6009 12.7513 10.4655 12.1029 10.6809 11.646C10.8533 11.2878 11.1796 11.1026 11.7213 11.0655C12.2692 11.0346 12.5524 11.1149 12.8787 11.4113C13.2542 11.7509 13.3835 12.0535 13.3835 12.6093C13.3896 13.0477 13.3712 13.1094 13.1126 13.5973C12.8664 14.0604 12.8417 14.1468 12.8417 14.542C12.8417 14.8693 12.8725 15.036 12.9772 15.2336C13.051 15.3818 13.1003 15.4991 13.0818 15.4991C13.0695 15.4991 12.8971 15.3942 12.7001 15.2707C12.2076 14.9557 11.7275 14.8199 11.1242 14.8199C10.4285 14.8261 10.1884 14.8878 9.23422 15.3448C8.00915 15.9252 7.33197 16.0611 6.70404 15.8388C6.0638 15.6103 5.60209 14.8014 5.78678 14.2394C5.91606 13.8443 6.48858 13.4861 6.8087 13.6096C6.88873 13.6405 6.88257 13.6775 6.74714 13.8381C6.29774 14.3753 6.85179 15.2213 7.57822 15.0978C7.91065 15.0422 8.27386 14.6902 8.37236 14.3382C8.52011 13.764 8.12612 13.0539 7.5105 12.7883C7.06726 12.5969 6.18077 12.5907 5.77447 12.7698C5.37432 12.9427 4.96801 13.3688 4.84489 13.7393C4.70329 14.1406 4.71561 14.7581 4.86335 15.3448C4.93107 15.6103 4.98648 15.8388 4.98648 15.8573C4.98648 15.8696 4.8572 15.7708 4.69714 15.635C4.2108 15.2336 3.91531 15.1101 3.49669 15.141C2.92416 15.1842 2.64098 15.5609 2.7641 16.1228C2.85029 16.518 3.1581 16.765 3.65675 16.8515C3.86606 16.8885 4.08768 16.9194 4.14924 16.9194C4.2108 16.9194 4.07537 17.0182 3.84759 17.1355C2.51786 17.8271 1.97612 18.9571 2.30855 20.365C2.5117 21.2172 3.10269 22.0014 3.89684 22.4707C4.26005 22.6868 5.25735 23.0511 5.68828 23.1314C5.91606 23.1684 5.92221 23.1684 5.87296 23.0264C5.84218 22.9461 5.81756 22.7732 5.82371 22.6374C5.82371 22.4398 5.86681 22.3595 6.10074 22.1372C6.41471 21.8408 6.75329 21.7358 7.39353 21.7358C7.83678 21.7358 8.03993 21.637 8.31696 21.3036L8.52627 21.0566L8.50164 21.3777C8.47086 21.8717 8.59398 22.3225 8.80945 22.5077C9.14188 22.7856 9.76981 22.6744 9.99143 22.2978C10.1946 21.952 10.1084 21.5444 9.72056 21.0504L9.54819 20.8281L9.83137 20.9763C10.4285 21.2789 11.3335 21.106 11.8937 20.575C12.3185 20.1736 12.5155 19.7413 12.5462 19.1053C12.5709 18.636 12.5585 18.5619 12.3923 18.2038C12.1769 17.753 11.7952 17.3331 11.4751 17.1973C11.3519 17.1479 11.0995 17.1046 10.9149 17.1046C10.2808 17.1046 9.84984 17.4751 9.84984 18.0185C9.84984 18.5557 10.1453 18.8336 10.7055 18.8336C10.9764 18.8336 11.0441 18.8089 11.235 18.6175C11.3519 18.494 11.4504 18.3334 11.4566 18.2593C11.4628 18.1482 11.4689 18.1544 11.5182 18.3087C11.6043 18.5681 11.5366 19.1053 11.3827 19.4017C11.1365 19.8772 10.4531 20.013 9.76365 19.7105C9.04954 19.3894 8.68017 18.1173 9.06801 17.2714C9.40044 16.5427 9.94218 16.1722 10.7425 16.129C11.0134 16.1166 11.3458 16.1352 11.4874 16.1722C11.8506 16.271 12.2569 16.5612 12.5647 16.9503C13.1249 17.6604 13.6605 17.7406 13.8637 17.154C13.9375 16.9441 14.0422 16.9564 14.1222 17.1787C14.1653 17.2961 14.1222 17.4998 13.9683 18.0062C13.8452 18.4075 13.7652 18.8151 13.7652 19.025C13.759 19.34 13.7775 19.3832 13.9622 19.5437C14.073 19.6364 14.1899 19.7599 14.2207 19.8216C14.2946 19.9575 14.1899 21.6247 14.0668 22.2669C13.9991 22.6189 13.8944 22.8906 13.6605 23.3043C13.2604 24.0021 13.1742 24.2552 13.1742 24.6998C13.1742 25.1506 13.3281 25.3914 13.8082 25.6755C14.0052 25.7866 14.1838 25.9225 14.1961 25.9657C14.2392 26.0707 14.1407 26.2559 13.839 26.6573L13.5928 26.9784L13.9314 27.3983C14.1161 27.6268 14.3254 27.9108 14.3931 28.0281C14.5101 28.2257 14.5224 28.2257 14.5839 28.1084C14.6209 28.0343 14.8302 27.7503 15.0456 27.4662L15.4335 26.9475L15.2549 26.7376C14.7132 26.1077 14.707 25.9472 15.2242 25.6755C15.532 25.5149 15.6305 25.4161 15.7474 25.1938C15.9998 24.6875 15.9198 24.2676 15.3904 23.3413C15.2119 23.0326 15.0456 22.6436 14.9964 22.4089C14.8979 21.989 14.7748 20.754 14.7748 20.1921C14.7748 19.871 14.7932 19.8278 15.021 19.6055C15.2426 19.3832 15.2673 19.3338 15.2673 19.0436C15.2673 18.8707 15.1872 18.4446 15.0826 18.105C14.8979 17.4751 14.8671 17.259 14.9348 17.0799C14.9964 16.9132 15.1072 16.975 15.2365 17.2467C15.3658 17.5245 15.5012 17.5863 15.809 17.506C15.9013 17.4813 16.2215 17.2096 16.5293 16.8947C16.991 16.4192 17.1387 16.3019 17.4096 16.2093C17.8652 16.0611 18.6408 16.0981 19.0225 16.2834C19.8474 16.6909 20.2845 17.6233 20.0691 18.531C19.8598 19.4202 19.3734 19.8401 18.5485 19.8463C18.0252 19.8525 17.8344 19.7475 17.6251 19.3276C17.5143 19.1115 17.4835 18.9509 17.4835 18.5866L17.4896 18.1235L17.6066 18.352C17.7974 18.7039 18.0006 18.8336 18.3823 18.8336C18.764 18.8336 19.0348 18.6484 19.1456 18.3026C19.3611 17.6604 18.8686 17.1046 18.0868 17.1046C17.4712 17.1108 16.9602 17.4937 16.6278 18.2099C16.4985 18.4878 16.4677 18.6422 16.4739 18.988C16.4862 19.8834 16.8555 20.5009 17.6066 20.8899C18.0437 21.1184 18.0929 21.1307 18.53 21.106C18.807 21.0937 19.0779 21.0443 19.201 20.9763C19.4842 20.8343 19.4904 20.8405 19.2995 21.0628C18.8932 21.5506 18.8132 21.9643 19.0533 22.3348C19.2503 22.6374 19.7859 22.7485 20.1368 22.5633C20.3953 22.4336 20.5 22.1434 20.5 21.5568V21.0628L20.8016 21.3839L21.1033 21.705L21.7435 21.742C22.4638 21.7852 22.7716 21.9026 23.0548 22.2422C23.2087 22.4213 23.221 22.4768 23.1902 22.7979C23.1718 22.9955 23.1718 23.1561 23.1902 23.1561C23.2025 23.1561 23.4426 23.1005 23.7197 23.0326C24.4215 22.8535 25.3818 22.3719 25.7758 21.989C26.767 21.0381 27.0994 19.5993 26.5884 18.4878C26.3853 18.0494 25.7266 17.4134 25.2094 17.154L24.7847 16.9317L25.1664 16.8885C25.9236 16.8021 26.2868 16.4686 26.2868 15.8635C26.2868 15.3571 25.942 15.0916 25.3449 15.141C25.0309 15.1657 24.7046 15.3386 24.1875 15.7461L24.0213 15.8696L24.1444 15.4868C24.3107 14.9804 24.3291 14.0295 24.1814 13.6961C24.0275 13.3441 23.6089 12.9365 23.2518 12.7822C22.9932 12.671 22.827 12.6401 22.4084 12.6463C21.5896 12.6587 21.1218 12.8748 20.8263 13.3811C20.7401 13.5293 20.6601 13.7825 20.6416 13.9677C20.5554 14.8569 21.5465 15.4559 22.1745 14.8878C22.4884 14.6038 22.5192 13.9554 22.2237 13.7516C21.9405 13.554 22.4146 13.5232 22.7839 13.7084C23.141 13.8937 23.2826 14.153 23.2518 14.5852C23.2272 15.0422 22.9748 15.4621 22.5746 15.7091C22.3407 15.8511 22.1929 15.8943 21.8297 15.919C21.251 15.9561 20.7647 15.8141 19.712 15.3077C18.8317 14.8878 18.4315 14.7952 17.6866 14.8322C17.1018 14.8569 16.7016 14.999 16.1722 15.3695L15.9013 15.5547L16.0491 15.2707C16.1537 15.0545 16.1907 14.8816 16.1907 14.5729C16.1907 14.2086 16.1599 14.0974 15.9321 13.6405C15.6797 13.1527 15.6674 13.0909 15.6674 12.5969C15.6674 12.1338 15.6859 12.035 15.8398 11.7818C16.1353 11.2693 16.5477 11.0532 17.2003 11.0532C17.9637 11.0593 18.4685 11.4916 18.4685 12.14C18.4685 12.6463 18.1422 13.0292 17.7051 13.0292C17.3665 13.0292 17.1018 12.8563 16.9417 12.529C16.8309 12.3067 16.8063 12.282 16.7632 12.387C16.6524 12.6772 16.7447 13.307 16.9417 13.554C17.5635 14.3506 19.0471 14.1962 19.515 13.2823C19.712 12.8933 19.7797 12.3684 19.6812 12.0103C19.632 11.8374 19.5704 11.6521 19.5458 11.5966C19.5089 11.5039 19.5458 11.5101 19.7674 11.6336C20.0998 11.8189 20.6477 11.9671 21.2079 12.0165C21.7558 12.0659 22.3345 11.93 22.9194 11.6274C23.3995 11.3743 23.4057 11.3866 22.6916 11.2137C22.4576 11.1581 22.1375 11.0532 21.9836 10.9729C21.6389 10.8062 21.0048 10.1825 20.5923 9.60205C20.3953 9.32418 20.1737 9.10806 19.9829 8.98456C19.7058 8.81783 19.6258 8.79931 19.1703 8.79931C18.7516 8.79931 18.6347 8.82401 18.4931 8.92898C18.1607 9.17598 18.0683 9.36123 18.0683 9.79348C18.0683 10.1208 18.0498 10.1825 17.976 10.1516C16.9417 9.70085 15.8582 10.0714 15.335 11.047C15.2242 11.2569 15.1318 11.4237 15.1195 11.4237C15.0826 11.4237 15.218 10.6147 15.3288 10.1702C15.6058 9.09571 16.1784 8.31149 16.9602 7.92864C17.2988 7.76192 17.385 7.74957 18.0129 7.74957H18.7024L18.6101 7.57049C18.4685 7.29262 17.976 6.79245 17.6989 6.65042C17.3173 6.44665 16.6216 6.459 16.2522 6.6813C15.9444 6.86655 15.612 7.19382 15.3658 7.56432C15.2796 7.70017 15.2057 7.79279 15.2057 7.76809C15.2057 7.74339 15.3288 7.37907 15.4827 6.96535C15.8336 5.97735 15.9013 5.64391 15.8706 5.03876C15.8459 4.65591 15.7967 4.44596 15.6551 4.13104C15.4643 3.71115 14.9779 2.96398 14.6701 2.60583L14.4977 2.40823L14.1099 2.92693ZM6.93182 17.1602C7.11035 17.2034 7.1042 17.2096 6.79639 17.3146C6.34083 17.4628 6.09459 17.7653 6.09459 18.1791C6.09459 18.6545 6.35314 18.8954 6.8641 18.8954C7.29504 18.8954 7.609 18.6854 7.83678 18.247L7.92912 18.0617L7.99068 18.2223C8.21846 18.8151 8.26155 19.5129 8.09534 19.9328C7.81215 20.6367 6.84564 20.9084 6.32236 20.4391C6.14999 20.2847 6.11921 20.2168 6.09459 19.8772L6.0638 19.4943L5.79293 19.7043C5.44203 19.976 5.30044 20.1736 5.25735 20.4515C5.2081 20.7479 5.25735 20.9455 5.44819 21.1739L5.60825 21.3592L5.32507 21.4024C4.54939 21.5135 3.706 21.1307 3.41666 20.5256C3.17657 20.0192 3.19504 19.1794 3.45359 18.5928C3.77371 17.8641 4.58633 17.2652 5.47897 17.1046C5.78062 17.0429 6.63633 17.0799 6.93182 17.1602ZM23.5473 17.1046C24.0459 17.1849 24.717 17.5307 25.074 17.8888C25.2341 18.0494 25.4557 18.3643 25.5665 18.5866C25.7512 18.9571 25.7635 19.0312 25.7573 19.6055C25.7573 20.2847 25.6773 20.5317 25.3634 20.8899C25.0432 21.2604 24.2306 21.5074 23.6766 21.4024L23.4549 21.3592L23.6212 21.1369C23.8243 20.8714 23.8489 20.47 23.6766 20.1427C23.5904 19.976 23.0733 19.519 22.9625 19.5129C22.944 19.5129 22.9378 19.6425 22.9501 19.8031C22.9809 20.2477 22.7839 20.507 22.3468 20.6182C21.8851 20.7355 21.5404 20.6367 21.2018 20.2909C20.8632 19.9513 20.7524 19.5067 20.857 18.9015C20.894 18.6731 20.9617 18.4014 21.011 18.2964L21.091 18.0988L21.3003 18.389C21.5712 18.7472 21.8359 18.9077 22.1868 18.9077C22.5254 18.9077 22.6854 18.8213 22.8393 18.5681C22.9994 18.3026 22.9932 18.0617 22.8147 17.753C22.6731 17.5122 22.5007 17.401 22.076 17.2652C21.9036 17.2096 21.9775 17.1726 22.3838 17.1108C22.8947 17.0367 23.1225 17.0367 23.5473 17.1046Z" fill="#BE9F56"/>
<path d="M35.644 17.9691V27.9726H35.7979H35.9519V17.9691V7.9657H35.7979H35.644V17.9691Z" fill="#BE9F56"/>
<path d="M43.8627 8.17564C43.4687 8.35472 43.0685 8.80549 42.9331 9.21921C42.7915 9.64528 42.7915 10.4233 42.9331 10.8494C43.1363 11.4607 43.561 11.8497 44.2074 12.0165C44.5275 12.0967 44.6507 12.1029 44.9646 12.0412L45.334 11.9671L45.4941 12.1585C45.6295 12.3314 45.6849 12.3499 45.9742 12.3499C46.1466 12.3499 46.2944 12.3376 46.2944 12.319C46.2944 12.3005 46.1835 12.1461 46.0481 11.9732L45.8019 11.6583L46.0112 11.4175C46.3251 11.047 46.436 10.6086 46.4052 9.89228C46.3867 9.39828 46.3498 9.23774 46.2205 8.98456C45.8819 8.33619 45.3771 8.03362 44.6322 8.02744C44.2751 8.02744 44.1028 8.06449 43.8627 8.17564ZM45.02 8.73139C45.4387 8.90429 45.7403 9.45386 45.7403 10.0343C45.7403 10.3245 45.6049 10.8062 45.4817 10.9605L45.3586 11.1211L45.1986 10.905C45.0508 10.695 45.02 10.6827 44.7122 10.6827H44.3798L44.6322 11.0099C44.7676 11.1952 44.8784 11.3619 44.8784 11.3804C44.8784 11.4731 44.3429 11.4175 44.1397 11.3063C44.0227 11.2446 43.8442 11.0593 43.7396 10.8988C43.5672 10.6209 43.5549 10.553 43.5549 10.0405C43.5549 9.53413 43.5733 9.44768 43.7272 9.18216C44.0043 8.71286 44.5399 8.52762 45.02 8.73139Z" fill="#BE9F56"/>
<path d="M48.0612 8.07067C48.0428 8.10155 47.735 8.96604 47.3717 10.0034C47.0085 11.0408 46.6946 11.9238 46.6761 11.9671C46.6576 12.0288 46.7377 12.0412 47.0331 12.0288L47.421 12.0103L47.581 11.5472L47.7411 11.084L48.4922 11.0655L49.2371 11.047L49.4033 11.5472L49.5695 12.0412H49.9327C50.1297 12.0412 50.2959 12.0165 50.2959 11.9794C50.2959 11.93 49.6372 10.0281 48.9908 8.19417C48.9292 8.03362 48.9108 8.02745 48.5106 8.02745C48.2767 8.02745 48.0735 8.04597 48.0612 8.07067ZM48.7815 9.66381C48.9046 10.0405 49.0031 10.3801 49.0031 10.4233C49.0031 10.4789 48.8554 10.4974 48.4737 10.4974C48.0735 10.4974 47.9504 10.4789 47.975 10.4172C47.9874 10.3801 48.1105 10.0158 48.2398 9.62059C48.369 9.21921 48.4922 8.91664 48.5168 8.94134C48.5414 8.96604 48.6584 9.29331 48.7815 9.66381Z" fill="#BE9F56"/>
<path d="M50.7883 8.33619V8.64494L51.7979 8.65729L52.8014 8.67582L51.7979 10.1208C50.9238 11.3804 50.7883 11.6027 50.7883 11.8065V12.0412L52.2535 12.0288L53.7125 12.0103L53.731 11.7139L53.7494 11.4237H52.7275C52.1612 11.4237 51.7118 11.399 51.7241 11.3743C51.7364 11.3434 52.1796 10.695 52.7152 9.92933C53.5771 8.68199 53.6817 8.50292 53.6817 8.28062V8.02745H52.235H50.7883V8.33619Z" fill="#BE9F56"/>
<path d="M55.5346 8.13242C55.473 8.25592 54.1741 11.9485 54.1741 12.0103C54.1741 12.0288 54.3464 12.0412 54.5558 12.0288L54.9374 12.0103L55.0913 11.5286L55.2452 11.0532H55.9901H56.7289L56.9012 11.5472L57.0736 12.0412H57.443C57.64 12.0412 57.8062 12.0226 57.8062 11.9979C57.8062 11.9362 56.5073 8.26209 56.4457 8.13242C56.3964 8.05215 56.3041 8.02745 55.9901 8.02745C55.6762 8.02745 55.5838 8.05215 55.5346 8.13242ZM56.2672 9.66998C56.4026 10.0714 56.5134 10.4233 56.5134 10.448C56.5134 10.4727 56.2795 10.4974 55.9901 10.4974C55.7008 10.4974 55.4669 10.4789 55.4669 10.4542C55.4669 10.3554 55.9717 8.88577 55.9963 8.91047C56.0148 8.92282 56.1317 9.26244 56.2672 9.66998Z" fill="#BE9F56"/>
<path d="M59.2529 8.10154C58.4403 8.41029 57.9786 9.27479 58.0771 10.3122C58.1448 11.0161 58.5203 11.6151 59.0806 11.9115C59.3514 12.0535 59.8439 12.1091 60.2256 12.035L60.5888 11.9732L60.755 12.1647C60.9028 12.3437 60.9397 12.3561 61.2475 12.3376L61.5738 12.319L61.3214 11.9979L61.0628 11.6768L61.2783 11.3928C61.5553 11.0346 61.6846 10.5962 61.6846 10.0343C61.6846 9.21304 61.3891 8.61407 60.7981 8.24974C60.5396 8.08919 60.4411 8.06449 59.9732 8.04597C59.6777 8.03979 59.3576 8.06449 59.2529 8.10154ZM60.2872 8.73139C60.7242 8.91664 60.9582 9.37359 60.9643 10.0343C60.9643 10.4542 60.8104 10.9791 60.6504 11.0779C60.6196 11.0964 60.5272 11.0161 60.4472 10.8988C60.3118 10.7012 60.2748 10.6827 59.9732 10.6827H59.6469L59.8501 10.9667C59.9609 11.1211 60.0717 11.2631 60.0963 11.2755C60.3364 11.4298 59.7824 11.4792 59.4438 11.3372C58.8466 11.0902 58.5942 9.95403 58.9636 9.21921C59.2221 8.71904 59.7824 8.51527 60.2872 8.73139Z" fill="#BE9F56"/>
<path d="M63.1376 8.12007C62.8729 8.21269 62.5774 8.47204 62.4481 8.71904C62.3188 8.96604 62.3373 9.42916 62.4912 9.66998C62.6635 9.95403 62.9159 10.0899 63.6239 10.2875C64.3503 10.4913 64.6212 10.6888 64.5473 10.9791C64.5289 11.0717 64.4611 11.1952 64.4119 11.2569C64.2765 11.4051 63.8702 11.5039 63.587 11.4545C63.3038 11.4051 62.9775 11.1581 62.9775 10.9852C62.9775 10.8803 62.9283 10.8679 62.6081 10.8679C62.2942 10.8679 62.2388 10.8864 62.2388 10.9729C62.2449 11.1458 62.4542 11.5657 62.6143 11.7139C63.0945 12.1523 64.1964 12.2079 64.7751 11.825C65.1137 11.6027 65.2553 11.3372 65.2553 10.942C65.2553 10.2998 64.929 9.99108 63.9686 9.72556C63.2484 9.52796 63.0883 9.41063 63.1129 9.09571C63.1376 8.80549 63.3653 8.62641 63.7286 8.62024C64.0856 8.61406 64.375 8.74374 64.4673 8.95986C64.5412 9.12658 64.572 9.13893 64.8674 9.13893C65.1814 9.13893 65.1937 9.13276 65.1937 8.96604C65.1937 8.70051 64.929 8.36706 64.5658 8.18799C64.3072 8.05832 64.1595 8.02744 63.8147 8.02744C63.5747 8.03362 63.273 8.07067 63.1376 8.12007Z" fill="#BE9F56"/>
<path d="M65.7478 8.33619V8.64494H66.3634H66.979V10.3431V12.0412H67.3176H67.6562V10.3431V8.64494H68.2718H68.8874V8.33619V8.02745H67.3176H65.7478V8.33619Z" fill="#BE9F56"/>
<path d="M70.1247 8.16329C70.0939 8.24357 69.9461 8.66346 69.7922 9.10806C69.6383 9.54648 69.3428 10.3925 69.1397 10.9791L68.7642 12.0473L69.152 12.0288L69.5337 12.0103L69.6937 11.5472L69.8538 11.084H70.6172H71.3744L71.5283 11.5595L71.6822 12.0412H72.0392C72.2916 12.0412 72.3963 12.0165 72.3963 11.9609C72.3963 11.893 71.4667 9.20069 71.1281 8.28679L71.0296 8.02744H70.6049C70.217 8.02744 70.1739 8.03979 70.1247 8.16329ZM70.9065 9.70086C71.0419 10.0961 71.1404 10.4419 71.122 10.4604C71.0727 10.5098 70.1493 10.5098 70.1062 10.4604C70.0877 10.4419 70.1862 10.0837 70.3217 9.66381C70.4633 9.23774 70.5925 8.91664 70.6172 8.94134C70.6356 8.96604 70.7711 9.30566 70.9065 9.70086Z" fill="#BE9F56"/>
<path d="M72.9935 8.07067C72.9689 8.08919 72.9504 8.99691 72.9504 10.0775V12.0412H73.3198H73.6892L73.7015 10.6827L73.72 9.31801L74.6495 10.6641L75.573 12.0103L75.8931 12.0288L76.2132 12.0473V10.0405V8.02744H75.8746H75.536V9.38593C75.536 10.1331 75.5176 10.7444 75.4929 10.7444C75.4622 10.7382 75.0866 10.2072 74.6434 9.55883C73.5784 7.98422 73.6153 8.02744 73.2952 8.02744C73.1474 8.02744 73.012 8.04597 72.9935 8.07067Z" fill="#BE9F56"/>
<path d="M42.9084 18V20.0069H43.2778H43.6472V18V15.9931H43.2778H42.9084V18Z" fill="#BE9F56"/>
<path d="M56.5874 16.0549C56.0765 16.1784 55.6517 16.6662 55.6517 17.1355C55.6517 17.7036 56.0211 18.0432 56.9014 18.2779C57.7571 18.5125 57.9664 18.6916 57.8063 19.0744C57.7017 19.3338 57.3816 19.4696 56.9568 19.4388C56.6675 19.4141 56.5874 19.377 56.4397 19.2103C56.3473 19.1053 56.2673 18.9756 56.2673 18.9262C56.2673 18.8521 56.1811 18.8336 55.8979 18.8336C55.6948 18.8336 55.5286 18.8521 55.5286 18.8768C55.5286 19.0497 55.6825 19.4141 55.8179 19.5746C56.1011 19.9142 56.4151 20.0316 57.0368 20.0377C57.3446 20.0377 57.6894 20.0007 57.8125 19.9575C58.3481 19.766 58.6867 19.1671 58.5451 18.6545C58.4158 18.1667 58.1142 17.9444 57.2708 17.716C56.649 17.5431 56.4643 17.4443 56.4151 17.259C56.3104 16.8391 56.6367 16.5736 57.1846 16.623C57.5047 16.6539 57.8063 16.8453 57.8063 17.0244C57.8063 17.0799 57.911 17.1046 58.1757 17.1046H58.5451L58.5081 16.9317C58.3358 16.2216 57.4985 15.8388 56.5874 16.0549Z" fill="#BE9F56"/>
<path d="M44.386 18.0309V20.0069H44.7554H45.1247V18.6731C45.1247 17.9444 45.1493 17.3578 45.174 17.3763C45.1986 17.3887 45.6234 17.9876 46.1097 18.7039L47.0024 20.0007L47.3286 20.0069H47.6487V18.0309V16.0549H47.3102H46.9716V17.3825C46.9716 18.1111 46.9531 18.7101 46.9285 18.7101C46.8977 18.7101 46.4668 18.1111 45.9681 17.3825L45.057 16.0549H44.7246H44.386V18.0309Z" fill="#BE9F56"/>
<path d="M48.2026 16.0796C48.2026 16.0919 48.5104 16.975 48.8798 18.037C49.2553 19.0991 49.557 19.976 49.557 19.9883C49.557 20.0007 49.7601 20.0069 50.0064 20.0069H50.4619L51.1268 18.105C51.49 17.0614 51.804 16.1722 51.8225 16.129C51.8409 16.0734 51.7424 16.0549 51.4531 16.0549H51.0652L50.5543 17.5986C50.2711 18.4446 50.031 19.1424 50.0187 19.1424C50.0064 19.1424 49.7663 18.4446 49.4831 17.5986L48.9722 16.0549H48.5905C48.375 16.0549 48.2026 16.0672 48.2026 16.0796Z" fill="#BE9F56"/>
<path d="M52.3889 18.0309V20.0069H53.6817H54.9745V19.6981V19.3894H54.0203H53.0661V18.8645V18.3396H53.928H54.7898V18.0309V17.7221H53.928H53.0661V17.1973V16.6786L54.008 16.66L54.9437 16.6415L54.9622 16.3451L54.9807 16.0549H53.6879H52.3889V18.0309Z" fill="#BE9F56"/>
<path d="M59.0376 16.3636V16.6724H59.6532H60.2688V18.3396V20.0069H60.6382H61.0076V18.3396V16.6724H61.5924H62.1772V16.3636V16.0549H60.6074H59.0376V16.3636Z" fill="#BE9F56"/>
<path d="M62.7927 18.0309V20.0069H63.1313H63.4699L63.4761 18.6298C63.4761 17.6419 63.4945 17.2837 63.5438 17.3578C63.5807 17.4072 63.8331 18.0185 64.1101 18.7163L64.6149 19.976H64.8858H65.1567L65.6615 18.7163C65.9385 18.0185 66.1909 17.4072 66.2279 17.3578C66.2771 17.2837 66.2956 17.6419 66.2956 18.6298L66.3017 20.0069H66.6403H66.9789V18.0309V16.0549H66.5295H66.074L65.5014 17.4751C65.1813 18.2532 64.9043 18.8954 64.8858 18.8954C64.8673 18.8954 64.5903 18.2532 64.2702 17.4751L63.6915 16.0549H63.2421H62.7927V18.0309Z" fill="#BE9F56"/>
<path d="M67.7178 18.0309V20.0069H69.0106H70.3034V19.6981V19.3894H69.3799H68.4565V18.8645V18.3396H69.3184H70.1802V18.0309V17.7221H69.3184H68.4565V17.1973V16.6724H69.3799H70.3034V16.3636V16.0549H69.0106H67.7178V18.0309Z" fill="#BE9F56"/>
<path d="M71.042 18.0309V20.0069H71.4114H71.7807L71.793 18.6669L71.8115 17.3269L72.7349 18.6669L73.6522 20.0069H73.9785H74.3048V18.0309V16.0549H73.9354H73.566L73.5537 17.3887L73.5352 18.7225L72.618 17.3887L71.7007 16.0549H71.3683H71.042V18.0309Z" fill="#BE9F56"/>
<path d="M74.9204 16.3636V16.6724H75.536H76.1516V18.3396V20.0069H76.4902H76.8288V18.3396V16.6724H77.4444H78.06V16.3636V16.0549H76.4902H74.9204V16.3636Z" fill="#BE9F56"/>
<path d="M44.1274 24.0453C43.5549 24.1997 43.1547 24.5887 42.9331 25.1938C42.7915 25.5829 42.7915 26.4288 42.9331 26.8425C43.0624 27.2254 43.4441 27.6823 43.795 27.8614C44.0966 28.0158 44.7984 28.0775 45.1616 27.9787C45.6603 27.8429 46.1405 27.3489 46.2636 26.8425L46.3067 26.6758H45.9311C45.6418 26.6758 45.5556 26.6943 45.5556 26.7684C45.5556 26.9166 45.1924 27.281 44.9585 27.3612C44.7061 27.4415 44.3182 27.3921 44.0781 27.2501C43.3086 26.7993 43.3702 25.1136 44.1705 24.7369C44.6691 24.4961 45.3402 24.7184 45.5002 25.163C45.5802 25.3791 45.5864 25.3791 45.9435 25.3791H46.3067L46.2636 25.2062C46.1466 24.7369 45.8142 24.3232 45.4017 24.1379C45.057 23.9897 44.4783 23.9403 44.1274 24.0453Z" fill="#BE9F56"/>
<path d="M48.1842 24.0453C47.2977 24.2923 46.7744 25.1815 46.8729 26.2744C46.9714 27.3365 47.6671 28.0343 48.6397 28.0343C49.4093 28.0343 49.9572 27.707 50.2773 27.0587C50.4373 26.7376 50.4496 26.6449 50.4496 26.0274C50.4496 25.4099 50.4373 25.3173 50.2773 24.9962C49.8894 24.2058 49.0153 23.8106 48.1842 24.0453ZM49.1445 24.743C49.5508 24.953 49.7417 25.3544 49.7417 26.0274C49.7417 26.8364 49.4339 27.2995 48.8429 27.3921C48.1719 27.4909 47.6671 27.0093 47.6055 26.225C47.5439 25.4964 47.784 24.9221 48.2334 24.7245C48.492 24.6134 48.9106 24.6196 49.1445 24.743Z" fill="#BE9F56"/>
<path d="M59.5116 24.0206C58.9452 24.1626 58.5266 24.5208 58.2803 25.0642C58.1757 25.2926 58.151 25.4779 58.151 25.9966C58.1449 26.6141 58.1572 26.6696 58.3542 27.071C58.6743 27.7317 59.1607 28.022 59.9302 28.022C60.6997 28.022 61.186 27.7317 61.5061 27.071C61.7031 26.6696 61.7155 26.6141 61.7155 25.9966C61.7155 25.2556 61.6108 24.9592 61.2291 24.5269C60.8474 24.107 60.0779 23.8786 59.5116 24.0206ZM60.3488 24.7245C60.7797 24.9036 61.0075 25.3544 61.0075 26.0274C61.0075 26.5647 60.909 26.8549 60.632 27.1204C60.0656 27.6638 59.1853 27.4045 58.9206 26.6202C58.8344 26.3609 58.8344 25.731 58.9144 25.4285C59.0929 24.7986 59.7578 24.4714 60.3488 24.7245Z" fill="#BE9F56"/>
<path d="M75.8253 24.0206C75.265 24.1626 74.8403 24.5208 74.5879 25.0641C74.4832 25.2988 74.4586 25.4593 74.4647 26.0274C74.4647 26.8364 74.5756 27.1389 75.0126 27.565C75.3451 27.8923 75.7268 28.0343 76.2685 28.0343C76.9826 28.0343 77.549 27.6638 77.8629 26.9846C77.9984 26.7005 78.023 26.5585 78.0292 26.0892C78.0292 25.4099 77.9307 25.058 77.6352 24.6628C77.2473 24.1441 76.4593 23.8662 75.8253 24.0206ZM76.6625 24.7245C77.0873 24.8974 77.3212 25.3544 77.3212 25.9966C77.3212 26.6943 77.0811 27.1451 76.6194 27.3242C76.0407 27.5465 75.3943 27.2254 75.2343 26.6449C75.1358 26.2868 75.1481 25.6014 75.2589 25.3297C75.5051 24.743 76.1023 24.4837 76.6625 24.7245Z" fill="#BE9F56"/>
<path d="M51.1577 25.9904V27.9726H51.5271H51.8965V27.2624V26.5523H52.2597H52.629L53.0046 27.2624L53.3801 27.9726H53.7802H54.1804L54.0757 27.7688C54.0203 27.6638 53.8356 27.3242 53.6694 27.0216L53.3616 26.472L53.614 26.2497C54.0265 25.8854 54.1558 25.3482 53.9649 24.8048C53.8541 24.5084 53.7125 24.3479 53.4047 24.1873C53.1892 24.07 53.0292 24.0515 52.1612 24.0329L51.1577 24.0082V25.9904ZM53.0046 24.7307C53.2323 24.848 53.3124 24.9962 53.3124 25.3173C53.3124 25.5211 53.2754 25.6137 53.1338 25.7557C52.9615 25.9286 52.9245 25.9348 52.4259 25.9348H51.8965V25.2865V24.6381H52.3582C52.6537 24.6381 52.8938 24.6751 53.0046 24.7307Z" fill="#BE9F56"/>
<path d="M54.7283 25.9966V27.9726H55.0669H55.4054V27.3304V26.6943L56.0395 26.6635C56.9137 26.6202 57.2461 26.4473 57.4739 25.9039C57.714 25.3359 57.5293 24.5949 57.0738 24.2861C56.7536 24.07 56.4889 24.0206 55.5778 24.0206H54.7283V25.9966ZM56.5505 24.7554C56.963 25.0086 56.963 25.6878 56.5566 25.9348C56.4089 26.0274 56.2488 26.0583 55.8856 26.0583H55.4054V25.3482V24.6381H55.8856C56.2427 24.6381 56.4089 24.669 56.5505 24.7554Z" fill="#BE9F56"/>
<path d="M62.4233 25.9904V27.9726H62.7927H63.1621V27.2624V26.5523H63.5191H63.8823L64.2517 27.2439L64.6272 27.9417L65.0336 27.9602L65.446 27.9787L65.1628 27.4662C64.6519 26.5338 64.5965 26.4165 64.7011 26.3794C64.892 26.3115 65.1875 25.9472 65.2552 25.6816C65.3475 25.3358 65.2983 24.8727 65.132 24.601C65.0582 24.4837 64.8673 24.3108 64.7134 24.2182C64.4364 24.0576 64.3872 24.0515 63.4268 24.0268L62.4233 24.0082V25.9904ZM64.264 24.7307C64.6026 24.9036 64.6765 25.4964 64.3933 25.7743C64.2887 25.8792 64.1717 25.9101 63.7161 25.9225L63.1621 25.9472V25.2926V24.6381H63.6238C63.9131 24.6381 64.1594 24.6751 64.264 24.7307Z" fill="#BE9F56"/>
<path d="M67.0529 24.1873C67.0221 24.2861 66.7143 25.1568 66.3696 26.1324C66.031 27.1019 65.7478 27.917 65.7478 27.9417C65.7478 27.9602 65.9202 27.9726 66.1295 27.9602L66.505 27.9417L66.6589 27.4909L66.8067 27.0463H67.5577H68.3088L68.4565 27.5094L68.6043 27.9726H68.9859H69.3738L69.0044 26.9043C68.7951 26.3238 68.4873 25.4346 68.3149 24.9345L67.9948 24.0206H67.5516C67.1268 24.0206 67.1145 24.0268 67.0529 24.1873ZM67.8163 25.5767C67.9394 25.9595 68.0564 26.3115 68.0748 26.3485C68.0933 26.4103 67.9702 26.4288 67.57 26.4288C67.2807 26.4288 67.0406 26.4041 67.0406 26.3794C67.0406 26.3547 67.1391 26.0398 67.2561 25.6816C67.5269 24.8789 67.5208 24.8851 67.5577 24.8851C67.57 24.8851 67.687 25.2 67.8163 25.5767Z" fill="#BE9F56"/>
<path d="M69.2568 24.3293V24.6381H69.8725H70.4881V26.3053V27.9726H70.8267H71.1652V26.3053V24.6381H71.7809H72.3965V24.3293V24.0206H70.8267H69.2568V24.3293Z" fill="#BE9F56"/>
<path d="M73.012 26.0274V28.0343H73.3813H73.7507V26.0274V24.0206H73.3813H73.012V26.0274Z" fill="#BE9F56"/>
<path d="M78.7373 25.9966V27.9726H79.1067H79.476L79.4884 26.6449L79.5068 25.3235L80.4179 26.6449L81.329 27.9726H81.6676H82.0001V25.9966V24.0206H81.6307H81.2613L81.249 25.3667L81.2305 26.719L80.3071 25.3729L79.3837 24.0268L79.0636 24.0206H78.7373V25.9966Z" fill="#BE9F56"/>
<path d="M0.307808 31.1774L0.0307808 31.2144L0.0123123 33.5671L0 35.9197L0.566366 35.9568C1.6006 36.0309 2.4994 35.8518 2.88108 35.4875C3.50285 34.907 3.37357 33.8758 2.64099 33.5115L2.33318 33.3509L2.51171 33.2583C3.02883 32.9928 3.25045 32.4123 3.02883 31.9122C2.78874 31.3564 2.22237 31.1156 1.20661 31.1341C0.861862 31.1341 0.461712 31.1588 0.307808 31.1774ZM1.68679 31.801C2.01306 31.8751 2.22853 32.0974 2.23468 32.3691C2.247 32.8322 1.88378 33.0978 1.23123 33.0978H0.861862V32.4556C0.861862 31.8319 0.868018 31.8072 1.00345 31.7825C1.24354 31.7331 1.44054 31.7393 1.68679 31.801ZM1.96997 33.8696C2.23468 34.0055 2.37012 34.2525 2.36396 34.5612C2.35165 35.0491 1.92688 35.3208 1.17583 35.3208H0.861862V34.5118V33.6967L1.32357 33.7338C1.58213 33.7585 1.87147 33.8202 1.96997 33.8696Z" fill="#BE9F56"/>
<path d="M5.05431 31.6899C4.95581 32.0048 4.63569 33.0113 4.34019 33.9314C4.05085 34.8453 3.78614 35.6727 3.75536 35.7653L3.69995 35.9382H4.14935H4.59875L4.8019 35.259L5.00506 34.5798H5.76226H6.51947L6.72878 35.2405L6.93193 35.9074L7.41211 35.9259C7.78764 35.9382 7.88614 35.9259 7.86767 35.8641C7.82458 35.7468 6.68569 32.2333 6.49485 31.6281L6.33479 31.1218H5.78689H5.24515L5.05431 31.6899ZM6.03313 32.8199C6.17473 33.2954 6.31016 33.7338 6.32247 33.7894C6.35325 33.8882 6.29785 33.9005 5.76226 33.9005C5.43599 33.9005 5.17127 33.8882 5.17127 33.8758C5.17127 33.8635 5.26361 33.5485 5.38058 33.178C5.49139 32.8137 5.62067 32.3568 5.66377 32.1715C5.70686 31.9863 5.74995 31.8566 5.76226 31.8937C5.76842 31.9245 5.89154 32.3444 6.03313 32.8199Z" fill="#BE9F56"/>
<path d="M8.49561 33.53V35.9382H8.95732H9.41903V33.53V31.1218H8.95732H8.49561V33.53Z" fill="#BE9F56"/>
<path d="M9.9729 31.4923V31.8628H10.6501H11.3273V33.9005V35.9382H11.7582H12.1891V33.9005V31.8628H12.8663H13.5435V31.4923V31.1218H11.7582H9.9729V31.4923Z" fill="#BE9F56"/>
<path d="M18.0683 31.1774L17.7605 31.2144V33.5609V35.9074L18.1791 35.9259L18.5916 35.9444V34.9503V33.9623H18.9302C19.5581 33.9623 19.7674 34.1846 19.9767 35.0738C20.0383 35.3269 20.1245 35.6295 20.1676 35.7345C20.2476 35.9383 20.2537 35.9383 20.6724 35.9383H21.0971L20.8878 35.1602C20.6416 34.234 20.5492 34.0117 20.2907 33.7955C20.1799 33.7029 20.1306 33.6226 20.1737 33.6103C20.7893 33.4003 21.1094 32.5359 20.814 31.8937C20.6724 31.5849 20.5492 31.4738 20.1614 31.3009C19.9028 31.1835 19.7305 31.1588 19.1149 31.1465C18.7085 31.1403 18.2407 31.1527 18.0683 31.1774ZM19.7489 31.9245C20.2045 32.2086 20.1676 32.9434 19.6812 33.2027C19.5519 33.2707 19.3303 33.3077 19.0533 33.3077L18.6224 33.3139L18.6039 32.6408C18.5977 32.2642 18.6039 31.9245 18.6162 31.8813C18.6716 31.7455 19.5027 31.7763 19.7489 31.9245Z" fill="#BE9F56"/>
<path d="M25.4248 33.53V35.9382H25.8557H26.2867V35.0861V34.2278L26.496 33.987L26.6991 33.7461L26.8777 34.0302C26.9762 34.1846 27.2778 34.6724 27.5487 35.1232L28.0412 35.9321L28.5521 35.9382C28.9461 35.9382 29.0508 35.9197 29.02 35.8641C28.9892 35.8209 28.6014 35.2034 28.152 34.4995C27.7026 33.7894 27.3332 33.2027 27.3332 33.1842C27.3332 33.1657 27.6903 32.7149 28.1274 32.1777C28.5644 31.6343 28.9092 31.1774 28.8907 31.1588C28.8661 31.1403 28.6383 31.1218 28.3798 31.1218H27.9057L27.1116 32.2024L26.3174 33.2768L26.2867 32.2147L26.2559 31.1527L25.8434 31.1341L25.4248 31.1156V33.53Z" fill="#BE9F56"/>
<path d="M14.0977 33.5609V35.9382H15.5444H16.991V35.5678V35.1973H15.9753H14.9534L14.9718 34.4995L14.9903 33.8079L15.9014 33.7894L16.8064 33.7708V33.4374V33.0978H15.8829H14.9595V32.4803V31.8628H15.9137H16.8679V31.5232V31.1835H15.4828H14.0977V33.5609Z" fill="#BE9F56"/>
<path d="M21.7927 33.5609V35.9382H23.2086H24.6246V35.5678V35.1973H23.6396H22.6546V34.4871V33.777H23.5472H24.4399V33.4374V33.0978H23.5472H22.6546V32.4803V31.8628H23.6088H24.563V31.5232V31.1835H23.1779H21.7927V33.5609Z" fill="#BE9F56"/>
</g>
<defs>
<clipPath id="clip0_1787_263">
<rect width="82" height="36" fill="white"/>
</clipPath>
</defs>
</svg>
