<svg width="1377" height="568" viewBox="0 0 1377 568" fill="none" xmlns="http://www.w3.org/2000/svg">
<g clip-path="url(#clip0_2253_14)">
<path d="M229 38C232.143 39.3502 233.818 40.6845 235.805 43.457C236.303 44.1516 236.802 44.8462 237.315 45.5618C238.087 46.6759 238.087 46.6759 238.875 47.8125C239.671 48.9508 239.671 48.9508 240.484 50.1121C249.373 63.1078 253.62 75.2129 252 91C250.98 96.1628 249.341 101.132 247.634 106.103C246.652 109.041 245.829 112.016 245 115C245.681 114.113 246.361 113.226 247.062 112.312C252.036 106.369 257.898 102.475 265.727 101.746C274.105 101.417 279.598 103.275 286.625 107.625C291.092 112.092 295.879 117.629 297 124C296.072 123.835 295.144 123.67 294.187 123.5C282.524 121.931 271.892 123.05 262.187 130.25C248.391 142.025 243.269 157.305 241 175C241.34 174.42 241.681 173.84 242.031 173.242C246.582 165.908 252.178 160.249 260.535 157.469C269.246 155.812 278.007 156.085 286 160C285.67 159.34 285.34 158.68 285 158C284.464 151.786 285.092 147.032 289 142C294.076 137.56 300.26 137.322 306.754 137.562C315.294 138.714 320.751 143.05 326.141 149.539C327.996 151.995 329.723 154.507 331.437 157.062C341.084 171.118 354.125 175.474 370 179C366.877 182.529 363.786 184.276 359.5 186.188C358.376 186.697 357.252 187.206 356.094 187.73C344.493 192.491 328.559 191.235 317 187C314.884 186.107 312.987 185.159 311 184C311.33 184.99 311.66 185.98 312 187C314.42 195.804 312.584 203.726 309 212C305.571 216.965 300.942 220.612 295 222C287.332 223.271 279.954 223.972 273 220C268.369 216.471 264.997 212.872 264 207C263.481 196.037 263.481 196.037 265 193C265.66 193 266.32 193 267 193C267.346 193.814 267.346 193.814 267.699 194.645C269.226 197.995 270.473 200.531 273.25 203C276.952 204.346 280.111 204.701 284 204C287.305 202.132 288.652 200.68 290.375 197.312C291.503 191.331 291.149 186.826 287.875 181.625C281.693 175.98 276.348 175.431 268.156 175.656C261.86 176.342 257.881 178.772 253.625 183.375C248.494 189.998 248.303 196.857 249 205C249.999 209.31 251.92 212.944 254.125 216.75C258.137 223.704 258.042 232.092 256 239.75C255.67 240.493 255.34 241.235 255 242C255.594 241.602 256.188 241.203 256.801 240.793C268.245 233.478 280.268 231.038 293.741 233.501C302.304 235.43 309.597 238.971 317.355 242.973C327.779 248.191 339.555 252.224 351.289 249.461C358.691 246.938 362.559 242.881 366 236C367.358 232.379 367.33 228.834 367 225C364.563 220.127 362.11 217.877 357 216C354.249 215.747 354.249 215.747 352 216C352.474 216.536 352.949 217.072 353.437 217.625C356.094 221.662 356.182 224.847 355.437 229.562C353.453 234.307 350.646 236.677 346 239C340.395 239.374 336.813 239.209 332 236C327.703 231.645 325.834 228.487 325.687 222.375C325.768 215.665 327.077 211.324 331.508 206.285C338.965 199.192 347.451 198.482 357.324 198.506C365.337 198.767 370.655 201.249 376.812 206.312C384.415 215.653 385.572 223.033 385 235C384.484 239.034 383.804 243.014 383 247C383.508 246.602 384.016 246.203 384.539 245.793C391.443 240.479 396.436 237.365 405.375 237.656C409.212 238.159 411.238 239.307 414 242C416.788 246.356 417.29 249.02 416.5 254.125C415.35 258.691 413.913 261.193 410 264C405.445 266.226 401.002 267.232 396 268C396.701 268.352 397.402 268.704 398.125 269.066C409.78 275.131 418.122 282.263 423.102 294.766C426.984 307.466 425.339 321.207 419.875 333.25C410.512 350.322 394.009 358.978 375.969 364.254C372.295 365.177 368.774 365.704 365 366C365.119 365.276 365.237 364.551 365.359 363.805C365.98 359.151 366.4 355.958 364.562 351.562C358.542 345.542 352.233 344.521 344 344.188C336.836 343.718 332.044 343.077 327.047 337.461C326.701 336.979 326.356 336.497 326 336C325.963 336.869 325.925 337.738 325.887 338.633C325.201 350.656 325.201 350.656 322 355C318.327 358.241 314.86 358.465 310.145 358.285C305.964 357.729 303.742 355.662 300.687 352.938C298.221 348.643 298.218 344.841 299 340C300.09 337.351 301.35 335.372 303 333C301.921 333.238 301.921 333.238 300.82 333.48C292.016 335.102 283.936 334.249 276 330C268.193 324.532 262.731 317.937 260.398 308.59C258.594 296.859 260.377 287.715 267.312 278.125C271.36 273.209 275.684 270.292 282 269C288.017 268.422 292.621 269 298 272C303.831 277.198 303.831 277.198 304.203 281.172C304.3 286.499 304.264 290.539 301 295C296.338 298.33 291.562 298.915 286 298C282.197 295.995 280.382 294.573 278 291C277.695 297.413 277.864 303.237 281 309C283.388 310.623 283.388 310.623 286 311C286.99 311.33 287.98 311.66 289 312C295.957 312.868 301.911 311.434 308 308C313.431 303.619 315.594 296.617 317 290C317.959 280.162 315.998 272.314 309.687 264.625C302.794 257.427 295.825 255.574 286 255C277.404 255.339 270.649 258.201 264.639 264.405C262.711 266.494 260.809 268.596 258.98 270.773C255.992 274.254 253.257 276.29 249 278C245.937 278.188 245.937 278.188 243 277C240.998 274.499 239.464 271.843 238 269C236.787 269.98 236.787 269.98 236.98 271.828C237.419 276.956 238.392 281.437 240.062 286.312C242.178 292.885 243.156 299.13 242 306C239.625 309.188 239.625 309.188 237 311C234.776 312.793 234.776 312.793 234.817 315.22C234.85 316.136 234.884 317.052 234.918 317.996C234.971 319.533 234.971 319.533 235.026 321.1C235.079 322.201 235.132 323.303 235.187 324.438C235.242 325.565 235.296 326.692 235.351 327.853C236.267 344.673 238.196 357.517 247 372C251.136 379.708 253.462 386.449 251.504 395.223C249.364 401.691 245.63 404.226 239.687 407.25C238.461 407.839 237.233 408.425 236 409C236.659 414.265 239.13 416.9 242.504 420.816C244 423 244 423 244 427C242.946 428.875 242.946 428.875 241.48 430.785C240.689 431.828 240.689 431.828 239.881 432.893C239.322 433.609 238.763 434.325 238.187 435.062C237.64 435.782 237.093 436.502 236.529 437.244C234.156 440.343 231.812 443.286 229 446C228.408 445.131 227.817 444.262 227.207 443.367C226.409 442.203 225.611 441.039 224.812 439.875C224.425 439.305 224.038 438.735 223.639 438.148C221.611 435.199 219.547 432.47 217.137 429.82C215 427 215 427 214.961 424.934C216.796 421.518 219.219 418.581 221.602 415.535C223.218 413.094 223.218 413.094 222.98 410.34C221.726 407.347 220.602 406.836 217.687 405.5C213.065 403.17 210.343 400.686 208 396C207.161 385.642 208.403 378.918 213.719 370.172C221.149 357.894 222.973 346.097 224 332C224.064 331.162 224.128 330.324 224.194 329.46C225.205 319.566 225.205 319.566 222.434 310.379C221.182 309.122 219.898 307.896 218.578 306.711C216.613 304.581 216.384 303.437 216.25 300.562C216.634 294.937 218.427 289.559 220.22 284.24C221.842 279.298 222.234 275.205 222 270C221.34 269.67 220.68 269.34 220 269C219.845 270.145 219.845 270.145 219.687 271.312C218.934 274.258 218.447 275.252 216 277C212.533 278.486 210.935 277.979 207.312 276.812C203.31 274.676 200.819 271.573 198.062 268.062C191.613 259.911 185.381 256.511 175.047 255.16C165.926 254.681 158.085 257.195 151 263C145.624 268.931 142.212 276.425 141.906 284.469C142.39 292.117 144.59 299.764 149.187 305.938C156.006 310.938 162.507 313.199 171 312C175.307 310.434 177.602 308.868 180 305C180.786 301.967 180.786 301.967 181.187 298.75C181.346 297.672 181.505 296.595 181.668 295.484C181.778 294.665 181.887 293.845 182 293C181.34 293 180.68 293 180 293C179.361 293.639 178.721 294.279 178.062 294.938C175.177 297.823 172.62 298.183 168.687 298.312C164.05 298.237 161.474 297.226 158 294C155.132 289.282 154.511 285.489 155.367 280.145C156.827 275.196 159.875 272.662 164.187 270.125C170.283 268.326 175.521 268.273 181.625 270.062C190.532 275.176 195.413 281.318 199 291C201.292 300.061 199.75 310.037 195.172 318.164C189.948 326.347 183.277 330.626 173.977 333.66C171.457 334.093 169.055 334.094 166.5 334.062C165.562 334.053 164.623 334.044 163.656 334.035C162.341 334.018 162.341 334.018 161 334C159.68 334 158.36 334 157 334C157.45 334.71 157.45 334.71 157.91 335.434C160.623 340.151 161.541 343.552 160.609 348.953C159.405 352.997 157.337 355.22 153.75 357.312C148.949 358.513 144.795 358.758 140.187 356.812C135.465 352.9 134.533 348.617 133.812 342.688C133.654 341.433 133.495 340.179 133.332 338.887C133.168 337.458 133.168 337.458 133 336C132.134 337.176 132.134 337.176 131.25 338.375C128.661 341.395 126.779 342.728 122.837 343.331C121.688 343.394 121.688 343.394 120.516 343.457C119.662 343.518 118.809 343.579 117.93 343.643C116.159 343.755 114.389 343.857 112.617 343.947C105.247 344.506 100.327 346.784 95.0117 351.922C93.6151 354.791 93.7091 357.079 93.8125 360.25C93.8531 361.866 93.8531 361.866 93.8945 363.516C93.9293 364.335 93.9641 365.155 94 366C75.4642 363.418 57.3886 356.441 45.1015 341.727C35.7231 329.182 33.7414 315.254 35 300C37.3764 288.376 44.7883 280.059 54 273C56.9263 271.169 59.9028 269.523 63 268C62.2033 267.841 61.4067 267.683 60.5859 267.52C54.1017 266.092 49.5116 264.987 45 260C42.3834 255.718 42.441 250.88 43 246C44.348 242.555 45.5512 241.317 48.5625 239.188C55.3002 236.86 60.877 237.143 67.3125 240.25C70.8263 242.192 74.0053 244.305 77 247C76.8607 246.46 76.7214 245.92 76.5778 245.363C74.166 235.404 72.6254 222.839 77 213.25C81.5629 205.885 87.6767 201.249 96 199C98.973 198.589 101.877 198.521 104.875 198.562C105.664 198.572 106.454 198.582 107.267 198.592C116.206 198.863 122.203 200.746 128.5 207.312C132.828 212.68 134.248 217.129 133.937 224C133.279 229.029 131.638 232.46 128 236C123.467 239.122 119.353 239.771 114 239C110.187 237.68 108.331 236.366 105.625 233.375C103.559 229.085 103.251 225.683 104 221C105.5 217.938 105.5 217.938 107 216C101.106 216.354 98.0521 217.665 94 222C91.861 226.363 91.835 229.403 93 234C95.3309 240.669 98.8162 245.157 105.125 248.438C115.279 252.353 126.217 249.976 136 246C140.94 243.742 145.821 241.365 150.654 238.885C162.55 232.899 176.137 230.596 189.25 234.125C194.826 236.068 199.923 239.017 205 242C204.783 241.432 204.567 240.863 204.344 240.277C200.887 230.692 202.039 224.25 206 215C206.716 213.66 207.444 212.326 208.187 211C211.499 204.561 211.698 197.614 209.875 190.688C207.808 184.84 204.923 180.924 199.562 177.625C193.094 174.704 185.24 174.898 178.461 176.66C174.283 178.468 171.607 180.896 169.621 185.008C168.041 190.075 168.456 194.504 170.25 199.438C172.139 202.204 172.8 203.135 176 204C181.659 204.545 181.659 204.545 186.75 202.438C189.482 199.478 191.146 196.571 193 193C193.66 193.33 194.32 193.66 195 194C196.782 200.752 196.042 206.786 193 213C189.856 218.049 186.373 220.414 180.879 222.371C173.181 224.053 164.938 222.871 157.934 219.285C152.489 215.666 149.285 210.841 147.461 204.605C146.337 198.254 146.132 191.223 148 185C147.12 185.277 146.239 185.554 145.332 185.84C144.171 186.202 143.009 186.564 141.812 186.938C140.664 187.297 139.515 187.657 138.332 188.027C124.271 192.132 108.988 191.424 96.0507 184.398C93.6563 182.989 91.3144 181.536 89 180C91.8498 177.15 95.1777 177.014 99 176.25C106.213 174.681 112.061 172.531 118 168C118.969 167.263 119.939 166.525 120.937 165.766C124.393 162.853 126.775 159.396 129.312 155.688C134.513 148.353 140.061 140.758 149 138C154.965 137.394 161.658 136.773 167.125 139.625C170.442 142.365 172.234 144.044 174 148C174.314 152.024 174.235 155.973 174 160C174.993 159.514 175.985 159.028 177.008 158.527C180.933 156.853 184.636 156.498 188.875 156.562C189.578 156.571 190.28 156.579 191.004 156.588C200.835 156.907 207.321 160.989 214 168C215.515 169.95 216.749 171.863 218 174C217.203 159.115 211.649 143.014 200.75 132.562C190.856 124.431 180.073 122.059 167.574 123.227C165.713 123.458 163.856 123.725 162 124C166.017 114.795 171.739 107.274 181 103C188.012 100.84 195.654 100.953 202.312 104.062C206.948 106.669 210.524 110.006 214 114C214 111.739 213.47 110.245 212.723 108.113C212.456 107.339 212.19 106.565 211.916 105.768C211.353 104.149 210.788 102.532 210.221 100.916C205.309 86.5821 206.079 74.109 212.73 60.4453C217.107 52.2601 222.413 44.5873 229 38ZM243 116C244 118 244 118 244 118L243 116ZM216 117C217 119 217 119 217 119L216 117ZM75 274C73.6967 274.654 73.6967 274.654 72.3672 275.32C62.1946 280.877 56.8913 288.627 52.75 299.188C50.877 308.708 50.9132 318.596 56.2539 326.965C60.482 332.414 66.1998 335.78 73 337C75.5937 337.069 78.1581 337.094 80.75 337.062C81.4473 337.058 82.1447 337.053 82.8632 337.049C84.5755 337.037 86.2878 337.019 88 337C87.039 335.617 87.039 335.617 86.0586 334.207C83.34 329.972 82.5826 326.776 83.3359 321.766C84.8005 316.097 87.2724 313.36 92.0625 310.094C94 309 94 309 97 308C96.913 308.978 96.913 308.978 96.8242 309.977C96.5859 314.593 96.6529 317.352 98.875 321.5C102.498 325.092 107.038 325.897 112 326C118.017 325.069 122.181 322.83 126 318C130.58 309.985 130.943 303.037 128.625 294.188C127.709 290.906 126.914 288.871 125 286C124.443 287.072 123.886 288.145 123.312 289.25C120.78 293.687 117.905 296.365 113 298C108.7 298.419 105.069 298.455 101.062 296.75C97.4986 293.726 97.0857 291.871 96.625 287.188C96.7882 282.804 97.8383 279.138 101 276C104.227 274.285 107.511 273.072 111 272C111 271.67 111 271.34 111 271C99.621 268.12 85.4064 268.507 75 274ZM349 272C349.603 272.231 350.207 272.461 350.828 272.699C359.449 276.217 359.449 276.217 362 281C363.208 285.56 363.362 288.951 361.812 293.438C359.896 296.146 358.998 296.798 356 298C350.387 298.907 345.675 298.026 340.723 295.289C338.029 293.273 336.701 290.878 335 288C334.34 288 333.68 288 333 288C329.45 296.728 328.042 306.005 331.625 315C334.15 319.779 337.113 322.933 342.293 324.848C348.483 326.45 353.322 325.977 359 323C361.995 320.567 362.249 318.117 362.75 314.438C363.057 311.398 362.99 309.971 362 307C373.774 314.321 373.774 314.321 376 321C376.778 327.578 375.71 331.551 372 337C381.985 337.479 390.732 337.698 399.059 331.457C405.696 325.427 407.429 318.538 407.996 309.793C408.011 299.222 404.084 289.979 396.937 282.25C391.939 277.527 386.324 274.603 380 272C379.109 271.622 378.218 271.245 377.301 270.855C372.638 269.647 368.17 269.71 363.375 269.75C362.434 269.742 361.493 269.735 360.523 269.727C359.162 269.73 359.162 269.73 357.773 269.734C356.542 269.738 356.542 269.738 355.287 269.741C352.797 270.023 351.156 270.754 349 272Z" fill="#0D7E4A"/>
<path d="M229 0C231.766 1.33525 233.821 2.57187 235.988 4.75781C236.801 5.57379 236.801 5.57379 237.631 6.40625C238.186 6.97344 238.741 7.54062 239.312 8.125C240.128 8.94098 240.128 8.94098 240.959 9.77344C243.78 12.6245 246.482 15.5362 249.083 18.5894C253.511 23.6677 258.278 28.3844 263.062 33.125C264.023 34.0806 264.982 35.0365 265.942 35.9927C268.958 38.998 271.979 41.9993 275 45C278.507 48.4829 282.012 51.9676 285.512 55.4565C286.899 56.8365 288.288 58.2135 289.678 59.5903C294.041 63.9368 298.229 68.3444 302.241 73.0159C305.644 76.8544 309.324 80.4241 312.969 84.0312C313.808 84.8666 314.647 85.702 315.512 86.5626C318.172 89.2109 320.836 91.8558 323.5 94.5C327.013 97.9866 330.523 101.477 334.031 104.969C334.826 105.755 335.621 106.542 336.44 107.353C340.572 111.466 344.507 115.667 348.31 120.085C351.139 123.291 354.176 126.279 357.219 129.281C357.88 129.939 358.542 130.597 359.224 131.275C361.313 133.352 363.406 135.427 365.5 137.5C368.263 140.237 371.023 142.977 373.781 145.719C374.401 146.33 375.021 146.942 375.66 147.572C379.43 151.322 382.991 155.196 386.452 159.232C388.635 161.724 390.993 164.012 393.375 166.312C398.695 171.548 403.372 177.152 408 183C408.945 184.156 409.892 185.311 410.84 186.465C418.077 195.31 424.756 204.428 431 214C431.581 214.888 431.581 214.888 432.174 215.793C454.176 249.811 465.458 287.612 457.035 327.875C451.656 351.203 439.573 369.21 419.25 382.188C397.084 395.852 370.573 398.635 345 398C345.483 398.898 345.967 399.797 346.465 400.723C348.487 405.039 348.976 408.329 348 413C344.79 419.201 339.313 421.736 333 424C329.178 425.004 325.325 425.732 321.438 426.438C319.219 426.864 317 427.291 314.781 427.719C312.521 428.146 310.261 428.574 308 429C278.047 434.666 250.68 444.247 231 469C227.692 467.692 225.684 465.761 223.297 463.167C201.638 439.689 172.007 432.139 141.636 427.18C120.226 423.615 120.226 423.615 114 417C111.609 413.493 110.762 411.038 111.188 406.875C111.848 403.725 112.514 401.752 114 399C113.297 398.96 112.595 398.921 111.871 398.88C80.3067 397.022 51.655 393.557 27 372C25.9694 371.112 25.9694 371.112 24.918 370.207C8.35541 354.886 0.95901 331.16 -0.142334 309.156C-1.92076 250.943 30.8849 204.097 69.2109 163.042C75.3252 156.571 81.6441 150.301 87.9844 144.052C88.7926 143.253 89.6009 142.453 90.4336 141.629C91.5018 140.578 91.5018 140.578 92.5916 139.506C94.5579 137.46 96.4148 135.382 98.2659 133.234C102.091 128.831 106.166 124.724 110.312 120.625C111.471 119.472 111.471 119.472 112.654 118.295C115.924 115.041 119.2 111.793 122.476 108.545C124.882 106.157 127.285 103.766 129.688 101.375C130.417 100.654 131.146 99.9329 131.898 99.1899C135.191 95.9118 138.388 92.6068 141.418 89.082C145.582 84.2523 150.096 79.7977 154.625 75.3125C155.531 74.4106 156.436 73.5086 157.37 72.5793C160.729 69.2339 164.093 65.8931 167.458 62.5526C170.766 59.2671 174.071 55.9777 177.375 52.6875C178.236 51.8352 179.096 50.9829 179.983 50.1047C184.251 45.8535 188.337 41.5314 192.263 36.9636C195.465 33.3434 198.912 29.9664 202.34 26.5625C203.107 25.797 203.874 25.0314 204.664 24.2427C207.086 21.8261 209.512 19.413 211.938 17C213.592 15.3505 215.246 13.7008 216.9 12.0508C220.931 8.03119 224.964 4.01447 229 0ZM229 23C226.142 25.829 223.289 28.664 220.438 31.5C219.638 32.2915 218.838 33.083 218.014 33.8984C213.762 38.1326 209.699 42.4404 205.789 46.9902C201.648 51.6413 197.11 55.925 192.672 60.2891C189.2 63.7253 185.801 67.162 182.625 70.875C177.604 76.7177 172.025 82.0318 166.543 87.4365C165.11 88.8513 163.68 90.2694 162.25 91.6875C161.41 92.5164 160.569 93.3452 159.703 94.1992C157.644 96.3329 155.703 98.4809 153.773 100.727C149.535 105.611 144.968 110.139 140.375 114.688C139.469 115.589 138.564 116.491 137.63 117.421C134.271 120.766 130.907 124.107 127.542 127.447C124.234 130.733 120.929 134.022 117.625 137.312C116.764 138.165 115.904 139.017 115.017 139.895C110.663 144.232 106.459 148.629 102.471 153.307C100.27 155.841 97.9015 158.155 95.5 160.5C91.1133 164.835 86.9914 169.301 83 174C81.6948 175.489 81.6948 175.489 80.3633 177.008C72.4823 186.025 65.1529 195.398 58 205C57.5541 205.592 57.1083 206.185 56.6489 206.795C33.1923 238.062 15.9667 273.288 20.6875 313.188C24.23 334.393 33.6699 352.739 51 366C69.403 377.966 92.7377 386.705 115 386C114.651 385.492 114.301 384.984 113.941 384.461C109 376.986 109 376.986 109 372C111.008 365.658 111.008 365.658 113.777 363.82C120.605 361.3 127.93 362.805 134.625 365C151.443 370.222 169.521 366.831 185 359C196.821 352.14 205.482 344.098 212 332C212 331.34 212 330.68 212 330C212.66 330.33 213.32 330.66 214 331C211.411 347.226 204.935 362.625 191.359 372.639C185.955 376.432 180.35 379.499 174.242 382.027C171.788 383.013 171.788 383.013 169 385C169.559 385.07 170.117 385.14 170.693 385.212C173.277 385.544 175.857 385.897 178.438 386.25C179.316 386.36 180.194 386.469 181.1 386.582C188.762 387.656 196.049 389.826 202 395C201.702 397.781 201.056 398.94 199.125 401C188.737 407.649 177.963 407.752 166 408C168.775 409.85 171.398 410.974 174.496 412.156C188.946 417.722 201.41 425.734 213 436C213.516 436.456 214.032 436.912 214.564 437.381C224.064 445.809 224.064 445.809 227.223 449.828C227.809 450.545 228.396 451.262 229 452C229.66 452 230.32 452 231 452C232.535 450.483 232.535 450.483 234.125 448.5C249.045 431.072 267.192 419.612 288.213 410.834C290.271 409.928 290.271 409.928 293 408C291.733 407.963 290.466 407.925 289.16 407.887C287.461 407.821 285.762 407.755 284.062 407.688C283.232 407.665 282.401 407.642 281.545 407.619C272.364 407.226 265.095 404.912 258 399C257.67 398.01 257.34 397.02 257 396C264.403 389.319 271.191 387.532 280.938 386.312C281.908 386.183 282.878 386.053 283.877 385.92C286.25 385.604 288.624 385.298 291 385C288.25 383.167 285.479 381.757 282.504 380.336C275.378 376.91 268.827 373.44 263 368C262.39 367.432 261.781 366.863 261.152 366.277C251.471 356.255 247.769 343.245 245 330C247.746 332.61 249.913 335.178 251.938 338.375C261.378 353.258 276.116 360.89 292.688 365.875C304.602 368.535 316.546 368.012 327.996 363.902C333.796 362.16 340.196 361.618 345.719 364.34C348 366 348 366 350 369C350.849 376.038 348.797 380.142 345 386C372.969 384.996 399.146 376.032 419 356C420 355.051 420 355.051 421.02 354.082C437.462 337.268 439.509 312.181 439.277 290.055C439.051 281.546 437.655 274.056 435 266C434.702 265.053 434.702 265.053 434.399 264.086C428.668 246.068 418.984 229.3 408 214C407.465 213.25 406.929 212.5 406.378 211.727C399.412 202.003 392.226 192.563 384.352 183.558C382.956 181.949 381.583 180.323 380.215 178.691C365.844 161.598 350.031 145.926 334.183 130.219C333.5 129.541 332.817 128.862 332.114 128.163C330.832 126.89 329.549 125.619 328.263 124.351C324.574 120.682 321.117 116.876 317.715 112.94C315.079 109.958 312.272 107.167 309.438 104.375C308.843 103.784 308.248 103.193 307.635 102.583C305.759 100.72 303.88 98.8595 302 97C287.888 83.0404 287.888 83.0404 282.66 76.8828C279.145 72.8957 275.287 69.227 271.5 65.5C266.38 60.4606 261.405 55.3991 256.725 49.9473C253.646 46.4712 250.314 43.2501 247 40C242.271 35.3618 237.758 30.6822 233.543 25.5664C231.978 23.7404 231.978 23.7404 229 23Z" fill="#B49960"/>
<path d="M44.625 496.437C47.7681 499.401 49.7474 502.012 50.3008 506.367C50.3255 511.663 50.1279 515.517 47 520C45.0789 521.796 43.0756 523.376 41 525C40.505 525.99 40.505 525.99 40 527C40.5362 527.062 41.0725 527.124 41.625 527.187C45.7738 528.607 48.8779 531.048 51.0508 534.828C53.7533 541.335 53.9579 547.16 51.375 553.687C48.1854 560.111 44.1292 562.722 37.625 565.25C25.376 569.322 12.6821 568.409 0 567C0 542.25 0 517.5 0 492C11.3851 486.307 35.003 488.416 44.625 496.437ZM14 502C14 508.27 14 514.54 14 521C24.0298 521.718 24.0298 521.718 33 518C35.1198 514.82 35.5588 512.806 35.4258 509.004C34.8261 506.181 33.3789 504.552 31.0508 502.902C25.5983 500.503 19.6699 500.582 14 502ZM14 532C14 539.92 14 547.84 14 556C25.3089 556.77 25.3089 556.769 35 552C37.6877 547.968 37.6742 544.736 37 540C34.6282 535.871 32.4452 534.438 28 533C25.5701 532.717 23.13 532.512 20.6875 532.375C18.4806 532.251 16.2738 532.127 14 532Z" fill="#0D7E4A"/>
<path d="M325.625 496.363C330.402 501.175 331.682 506.328 332 513C331.717 519.937 327.891 524.36 323 529C322.01 529.66 321.02 530.32 320 531C321.114 531.959 321.114 531.959 322.25 532.938C329.675 540.551 334 556.512 334 567C329.05 567 324.1 567 319 567C318.685 565.973 318.371 564.945 318.047 563.887C316.937 560.278 315.803 556.676 314.658 553.078C314.08 551.253 313.516 549.424 312.953 547.594C312.639 546.635 312.324 545.676 312 544.688C311.732 543.846 311.464 543.004 311.188 542.137C309.515 539.128 308.187 538.349 305 537C301.7 536.67 298.4 536.34 295 536C295 546.23 295 556.46 295 567C290.05 567 285.1 567 280 567C280 542.25 280 517.5 280 492C291.323 486.339 315.972 488.265 325.625 496.363ZM295 502C295 509.59 295 517.18 295 525C305.565 525.537 305.565 525.537 314.598 520.668C317.165 517.615 317.109 513.867 317 510C315.322 505.712 313.084 503.983 309 502C305.418 501.639 305.418 501.639 301.688 501.813C299.481 501.874 297.274 501.936 295 502Z" fill="#0D7E4A"/>
<path d="M401 491C405.95 491 410.9 491 416 491C416.33 501.23 416.66 511.46 417 522C418.217 520.206 419.434 518.411 420.688 516.563C434.345 496.655 434.345 496.655 440 491C441.343 490.914 442.69 490.893 444.035 490.902C444.844 490.906 445.653 490.909 446.486 490.912C447.336 490.921 448.187 490.929 449.062 490.938C449.917 490.942 450.771 490.947 451.65 490.951C453.767 490.963 455.883 490.981 458 491C455.334 495.907 451.819 499.991 448.25 504.25C446.993 505.771 445.737 507.291 444.48 508.813C442.5 511.203 440.506 513.578 438.488 515.938C437.853 516.701 437.217 517.464 436.562 518.25C436.028 518.874 435.493 519.498 434.941 520.141C433.611 522.768 434.24 524.194 435 527C436.093 529.144 436.093 529.144 437.52 531.195C438.042 531.985 438.564 532.775 439.103 533.589C439.667 534.426 440.231 535.263 440.812 536.125C441.991 537.904 443.168 539.684 444.344 541.465C444.947 542.375 445.55 543.285 446.172 544.222C449.104 548.678 451.963 553.179 454.812 557.688C455.334 558.507 455.855 559.326 456.392 560.171C456.867 560.923 457.342 561.675 457.832 562.449C458.252 563.113 458.672 563.776 459.105 564.46C460 566 460 566 460 567C453.988 568.202 447.868 569.271 442 567C436.946 562.339 434.18 555.697 431.267 549.579C429.498 545.978 427.411 542.625 425.25 539.25C424.616 538.224 423.982 537.198 423.328 536.141C422.671 535.081 422.671 535.081 422 534C418.934 536.605 417.182 538.136 416.341 542.138C416.325 543.285 416.309 544.432 416.293 545.613C416.264 546.861 416.235 548.108 416.205 549.393C416.199 550.686 416.193 551.98 416.188 553.313C416.162 554.626 416.137 555.938 416.111 557.291C416.052 560.527 416.023 563.764 416 567C411.05 567 406.1 567 401 567C401 541.92 401 516.84 401 491Z" fill="#0D7E4A"/>
<path d="M82 491C88.27 491 94.54 491 101 491C107.038 509.017 113.053 527.042 118.948 545.106C119.482 546.742 120.018 548.377 120.555 550.012C121.307 552.3 122.053 554.589 122.797 556.879C123.021 557.559 123.246 558.238 123.477 558.938C124.387 561.758 125 564.014 125 567C119.72 567 114.44 567 109 567C107.997 563.876 106.997 560.751 106 557.625C105.714 556.736 105.428 555.846 105.133 554.93C104.862 554.079 104.591 553.228 104.312 552.352C104.061 551.566 103.81 550.781 103.551 549.971C103 548 103 548 103 546C95.41 546.33 87.82 546.66 80 547C78.067 553.207 78.067 553.207 76.1409 559.416C75.8997 560.185 75.6586 560.954 75.4102 561.746C75.164 562.537 74.9179 563.328 74.6643 564.142C74 566 74 566 73 567C70.4695 567.073 67.967 567.092 65.4375 567.062C64.7266 567.058 64.0157 567.053 63.2832 567.049C61.5221 567.037 59.761 567.019 58 567C60.122 558.91 62.5507 550.948 65.125 542.992C65.5132 541.786 65.9013 540.58 66.3013 539.337C67.3242 536.161 68.3492 532.985 69.3752 529.81C70.2078 527.232 71.0381 524.653 71.8683 522.074C73.5948 516.711 75.323 511.349 77.0547 505.988C77.3587 505.046 77.6628 504.104 77.9761 503.134C79.2994 499.084 80.6524 495.043 82 491ZM90 506C88.827 510.102 87.6627 514.207 86.5 518.312C86.1661 519.48 85.8323 520.647 85.4883 521.85C85.1725 522.968 84.8566 524.086 84.5312 525.238C84.0914 526.786 84.0914 526.786 83.6426 528.365C82.8816 531.034 82.8816 531.034 83 534C88.61 534 94.22 534 100 534C97.4896 524.619 94.7612 515.309 92 506C91.34 506 90.68 506 90 506Z" fill="#0D7D4A"/>
<path d="M344 491C358.52 491 373.04 491 388 491C388 494.96 388 498.92 388 503C378.1 503 368.2 503 358 503C358 508.94 358 514.88 358 521C367.57 521 377.14 521 387 521C387 525.29 387 529.58 387 534C377.43 534 367.86 534 358 534C358 540.93 358 547.86 358 555C368.56 555 379.12 555 390 555C390 558.96 390 562.92 390 567C374.82 567 359.64 567 344 567C344 541.92 344 516.84 344 491Z" fill="#0D7E4A"/>
<path d="M223 491C237.52 491 252.04 491 267 491C267 494.96 267 498.92 267 503C257.1 503 247.2 503 237 503C237 508.94 237 514.88 237 521C246.57 521 256.14 521 266 521C266 525.29 266 529.58 266 534C256.43 534 246.86 534 237 534C237 540.93 237 547.86 237 555C247.56 555 258.12 555 269 555C269 558.96 269 562.92 269 567C253.82 567 238.64 567 223 567C223 541.92 223 516.84 223 491Z" fill="#0D7E4A"/>
<path d="M1136 382C1139.96 382 1143.92 382 1148 382C1148.33 395.2 1148.66 408.4 1149 422C1151.45 417.999 1153.91 413.997 1156.44 409.875C1157.92 407.489 1159.41 405.103 1160.89 402.719C1163.62 398.338 1166.21 393.932 1168.49 389.299C1170.04 386.675 1172.08 384.365 1174 382C1178.62 382 1183.24 382 1188 382C1188 402.13 1188 422.26 1188 443C1184.04 443 1180.08 443 1176 443C1175.67 429.47 1175.34 415.94 1175 402C1171.7 407.61 1168.4 413.22 1165 419C1162.5 422.997 1159.99 426.978 1157.44 430.938C1156.23 432.821 1155.02 434.705 1153.81 436.59C1153.29 437.393 1152.77 438.196 1152.24 439.023C1150.98 440.968 1150.98 440.968 1150 443C1145.38 443 1140.76 443 1136 443C1136 422.87 1136 402.74 1136 382Z" fill="#B49960"/>
<path d="M843 256C846.96 256 850.92 256 855 256C855 269.86 855 283.72 855 298C857.64 293.38 860.28 288.76 863 284C865.582 279.775 868.177 275.566 870.812 271.375C871.467 270.327 872.121 269.279 872.795 268.199C875.42 264.011 878.031 259.958 881 256C885.29 256 889.58 256 894 256C894 276.13 894 296.26 894 317C890.04 317 886.08 317 882 317C882 303.14 882 289.28 882 275C879.03 280.28 876.06 285.56 873 291C870.944 294.381 868.883 297.733 866.75 301.062C866.26 301.838 865.77 302.613 865.266 303.412C864.308 304.919 863.334 306.415 862.342 307.899C860.97 309.955 860.97 309.955 859.986 312.113C858.953 314.059 858.953 314.059 856 317C851.71 317 847.42 317 843 317C843 296.87 843 276.74 843 256Z" fill="#B49960"/>
<path d="M1074 382C1077.63 382 1081.26 382 1085 382C1085 398.83 1085 415.66 1085 433C1093.58 433 1102.16 433 1111 433C1111 416.17 1111 399.34 1111 382C1114.96 382 1118.92 382 1123 382C1123 399.16 1123 416.32 1123 434C1124.98 434 1126.96 434 1129 434C1129.03 437.646 1129.05 441.292 1129.06 444.938C1129.07 445.978 1129.08 447.019 1129.09 448.092C1129.09 449.081 1129.09 450.071 1129.1 451.09C1129.1 452.006 1129.11 452.923 1129.11 453.867C1129 456 1129 456 1128 457C1124.33 457.143 1120.67 457.042 1117 457C1117 452.38 1117 447.76 1117 443C1102.81 443 1088.62 443 1074 443C1074 422.87 1074 402.74 1074 382Z" fill="#B59960"/>
<path d="M1075 130C1078.63 130 1082.26 130 1086 130C1086 138.58 1086 147.16 1086 156C1092.56 155.738 1092.56 155.738 1094.91 153.238C1095.62 152.109 1095.62 152.109 1096.35 150.957C1096.89 150.13 1097.43 149.303 1097.99 148.451C1098.53 147.58 1099.07 146.71 1099.62 145.812C1101.73 142.53 1103.85 139.256 1106 136C1106.62 135.04 1106.62 135.04 1107.25 134.062C1109.52 130.917 1110.68 130.053 1114.55 129.414C1115.79 129.484 1117.03 129.553 1118.31 129.625C1119.57 129.679 1120.82 129.733 1122.11 129.789C1123.07 129.859 1124.02 129.928 1125 130C1121.7 136.198 1117.64 141.625 1113.38 147.188C1112.03 148.95 1110.68 150.714 1109.34 152.48C1108.45 153.639 1108.45 153.639 1107.54 154.821C1106.13 156.823 1105.02 158.778 1104 161C1104.42 161.565 1104.84 162.13 1105.27 162.712C1107.16 165.265 1109.05 167.82 1110.94 170.375C1111.6 171.264 1112.26 172.154 1112.94 173.07C1113.56 173.921 1114.19 174.772 1114.84 175.648C1115.42 176.434 1116 177.219 1116.6 178.029C1118 180 1118 180 1119 182C1122.3 182.33 1125.6 182.66 1129 183C1129 190.59 1129 198.18 1129 206C1125.37 206 1121.74 206 1118 206C1118 201.38 1118 196.76 1118 192C1115.69 192 1113.38 192 1111 192C1109.2 190.566 1109.2 190.566 1107.9 188.562C1107.16 187.466 1107.16 187.466 1106.41 186.348C1105.93 185.573 1105.44 184.798 1104.94 184C1103.95 182.499 1102.96 180.999 1101.96 179.5C1100.47 177.239 1098.99 174.978 1097.54 172.688C1097.05 171.966 1096.57 171.244 1096.07 170.5C1095.43 169.525 1095.43 169.525 1094.79 168.531C1092.49 166.289 1092.49 166.289 1086 166C1086 174.58 1086 183.16 1086 192C1082.37 192 1078.74 192 1075 192C1075 171.54 1075 151.08 1075 130Z" fill="#B49960"/>
<path d="M1218.27 381.805C1219.52 381.81 1220.76 381.815 1222.05 381.82C1224.41 381.847 1224.41 381.847 1226.81 381.875C1231.82 381.916 1236.84 381.957 1242 382C1242 402.13 1242 422.26 1242 443C1238.04 443 1234.08 443 1230 443C1230 435.74 1230 428.48 1230 421C1226.37 421 1222.74 421 1219 421C1218.77 421.817 1218.53 422.635 1218.29 423.477C1216.73 427.731 1214.64 431.464 1212.38 435.375C1211.95 436.111 1211.53 436.847 1211.1 437.605C1210.07 439.406 1209.04 441.204 1208 443C1203.71 443 1199.42 443 1195 443C1197.25 436.259 1197.25 436.259 1199.16 432.984C1199.56 432.291 1199.96 431.597 1200.38 430.883C1200.79 430.179 1201.2 429.475 1201.62 428.75C1204.71 424.15 1204.71 424.15 1206 419C1204.32 417.467 1202.53 416.116 1200.73 414.73C1196.95 410.943 1196.71 406.716 1196.69 401.562C1196.78 396.623 1196.95 393.064 1200 389C1205.89 383.369 1210.19 381.738 1218.27 381.805ZM1211.06 393.937C1208.65 397.526 1208.25 399.659 1208.53 403.91C1209.2 406.91 1210.52 408.252 1213 410C1216.06 411.532 1219.27 411.102 1222.62 411.062C1226.28 411.032 1226.28 411.032 1230 411C1230 404.73 1230 398.46 1230 392C1220.17 391.019 1220.17 391.019 1211.06 393.937Z" fill="#B59960"/>
<path d="M944 384C952.003 389.571 955.878 396.157 957.684 405.656C959.003 415.428 958.016 425.254 952.125 433.438C946.998 439.61 941.613 443.569 933.531 444.324C923.608 444.612 916.626 443.546 909.188 436.813C901.938 428.991 900.688 419.641 900.781 409.359C901.371 400.303 904.569 393.023 911.25 386.813C920.198 379.62 933.904 377.955 944 384ZM917 397C912.337 403.655 912.036 411.124 913 419C914.241 423.574 916.027 426.916 919.188 430.438C923.652 432.918 928.073 434.495 933.219 433.625C937.789 432.124 940.517 430.23 943 426C946.795 417.556 947.203 409.712 943.984 401.012C941.817 396.583 938.462 393.873 934 392C927.165 390.912 921.703 391.698 917 397Z" fill="#B4985F"/>
<path d="M764.711 383.539C771.945 388.156 776.585 395.049 778.551 403.316C780.257 413.51 779.143 423.063 774.312 432.187C768.706 439.006 763.505 443.419 754.484 444.371C744.957 444.54 738.184 443.614 730.941 437.168C723.741 429.578 721.588 420.373 721.726 410.105C722.479 401.56 724.997 393.782 731.062 387.586C740.512 379.851 753.628 378.449 764.711 383.539ZM739 396C733.928 402.525 733.166 410.001 734 418C735.263 422.8 736.907 426.75 740.187 430.5C744.671 432.891 749.056 434.458 754.183 433.66C759.362 432.005 762.01 429.485 765 425C768.146 418.707 767.975 410.859 766.277 404.14C764.132 398.27 761.704 394.852 756 392C749.181 391.239 744.454 391.746 739 396Z" fill="#B59960"/>
<path d="M841 382C857.83 382 874.66 382 892 382C892 402.13 892 422.26 892 443C888.04 443 884.08 443 880 443C880 426.17 880 409.34 880 392C871.09 392 862.18 392 853 392C853 408.83 853 425.66 853 443C849.04 443 845.08 443 841 443C841 422.87 841 402.74 841 382Z" fill="#B59960"/>
<path d="M669 256C672.96 256 676.92 256 681 256C681 264.25 681 272.5 681 281C689.91 281 698.82 281 708 281C708 272.75 708 264.5 708 256C711.96 256 715.92 256 720 256C720 276.13 720 296.26 720 317C716.04 317 712.08 317 708 317C708 308.42 708 299.84 708 291C699.09 291 690.18 291 681 291C681 299.58 681 308.16 681 317C677.04 317 673.08 317 669 317C669 296.87 669 276.74 669 256Z" fill="#B49960"/>
<path d="M948 130C961.53 130 975.06 130 989 130C989 150.46 989 170.92 989 192C985.04 192 981.08 192 977 192C977 174.84 977 157.68 977 140C971.06 140 965.12 140 959 140C958.876 142.929 958.752 145.858 958.625 148.875C957.06 180.867 957.06 180.867 949.938 189.5C946.642 192.051 943.833 192.115 939.812 192.062C938.224 192.042 936.636 192.021 935 192C935 188.7 935 185.4 935 182C936.114 181.794 937.227 181.588 938.375 181.375C942.145 180.424 942.145 180.424 943.16 177.552C944.242 172.976 944.683 168.469 945.07 163.789C945.199 162.337 945.199 162.337 945.331 160.855C945.602 157.779 945.864 154.702 946.125 151.625C946.308 149.532 946.492 147.44 946.676 145.348C947.126 140.232 947.563 135.116 948 130Z" fill="#B59960"/>
<path d="M687 130C691.95 130 696.9 130 702 130C704.445 137.05 706.888 144.1 709.328 151.151C710.462 154.425 711.596 157.7 712.731 160.973C714.039 164.743 715.344 168.514 716.648 172.285C717.256 174.036 717.256 174.036 717.877 175.821C719.729 181.182 721.526 186.522 723 192C718.71 192 714.42 192 710 192C707.883 186.878 706.089 182.446 705 177C697.74 177 690.48 177 683 177C682.34 179.97 681.68 182.94 681 186C680.34 187.98 679.68 189.96 679 192C674.71 192 670.42 192 666 192C667.349 185.415 669.152 179.165 671.336 172.812C671.657 171.87 671.977 170.927 672.308 169.956C672.983 167.976 673.66 165.996 674.34 164.017C675.371 161.011 676.393 158.002 677.414 154.992C678.075 153.057 678.736 151.122 679.398 149.188C679.7 148.3 680.001 147.412 680.311 146.497C682.26 140.848 684.505 135.431 687 130ZM693 144C690.69 151.92 688.38 159.84 686 168C691.28 168 696.56 168 702 168C699.69 160.08 697.38 152.16 695 144C694.34 144 693.68 144 693 144Z" fill="#B4985F"/>
<path d="M841 130C845.95 130 850.9 130 856 130C859.35 137.875 862.426 145.764 865.207 153.855C865.577 154.924 865.948 155.992 866.329 157.093C867.101 159.323 867.872 161.554 868.64 163.785C869.823 167.218 871.012 170.649 872.201 174.08C872.953 176.255 873.705 178.43 874.457 180.605C874.813 181.634 875.169 182.663 875.536 183.724C875.861 184.666 876.185 185.608 876.519 186.579C876.806 187.411 877.093 188.243 877.388 189.1C878 191 878 191 878 192C873.71 192 869.42 192 865 192C862.883 186.878 861.089 182.446 860 177C852.74 177 845.48 177 838 177C837.546 178.732 837.093 180.465 836.625 182.25C835.682 185.85 834.684 188.633 833 192C828.71 192 824.42 192 820 192C826.867 171.286 833.794 150.599 841 130ZM848 143C845.69 151.25 843.38 159.5 841 168C846.28 168 851.56 168 857 168C855.884 164.018 854.758 160.04 853.625 156.062C853.308 154.926 852.991 153.79 852.664 152.619C852.2 151 852.2 151 851.727 149.348C851.444 148.347 851.161 147.347 850.87 146.317C850.238 143.836 850.238 143.836 848 143Z" fill="#B49860"/>
<path d="M669 382C672.96 382 676.92 382 681 382C681 390.25 681 398.5 681 407C687.83 406.77 687.83 406.77 690.625 403.191C691.437 401.995 692.228 400.784 693 399.562C693.431 398.935 693.862 398.308 694.306 397.661C696.269 394.786 698.038 391.928 699.668 388.847C701.266 385.985 702.417 384.033 705 382C710.141 381.168 714.847 381.403 720 382C715.638 388.728 710.964 395.171 706.125 401.562C705.437 402.476 704.748 403.389 704.039 404.33C702.362 406.555 700.682 408.778 699 411C700.363 413.889 701.92 416.426 703.793 419.012C704.338 419.766 704.883 420.52 705.445 421.297C706.307 422.48 706.307 422.48 707.188 423.687C707.771 424.492 708.355 425.297 708.956 426.127C712.515 431.019 716.131 435.853 719.926 440.566C721 442 721 442 721 443C715.897 444.143 710.953 444.97 706 443C699.85 437.662 695.82 429.854 691.771 422.883C690.468 420.702 690.468 420.702 688 418C684.535 417.505 684.535 417.505 681 417C681 425.58 681 434.16 681 443C677.04 443 673.08 443 669 443C669 422.87 669 402.74 669 382Z" fill="#B3985F"/>
<path d="M1030 382C1034.95 382 1039.9 382 1045 382C1048.17 388.882 1050.83 395.849 1053.33 403C1053.72 404.117 1054.12 405.234 1054.52 406.385C1055.35 408.727 1056.17 411.07 1056.99 413.414C1058.26 417.018 1059.53 420.62 1060.8 424.223C1061.6 426.502 1062.4 428.782 1063.2 431.062C1063.58 432.145 1063.97 433.227 1064.36 434.342C1064.71 435.334 1065.05 436.326 1065.41 437.348C1065.72 438.224 1066.03 439.101 1066.34 440.004C1067 442 1067 442 1067 443C1062.71 443 1058.42 443 1054 443C1050.12 433.375 1050.12 433.375 1049 430C1041.74 430 1034.48 430 1027 430C1026.36 431.959 1025.72 433.919 1025.06 435.938C1023.12 441.875 1023.12 441.875 1022 443C1019.81 443.073 1017.62 443.084 1015.44 443.062C1013.64 443.049 1013.64 443.049 1011.81 443.035C1010.88 443.024 1009.95 443.012 1009 443C1015.7 422.558 1022.79 402.267 1030 382ZM1037 395C1034.69 402.92 1032.38 410.84 1030 419C1035.28 419 1040.56 419 1046 419C1044.88 415.185 1043.76 411.373 1042.62 407.562C1042.31 406.474 1041.99 405.385 1041.66 404.264C1041.35 403.229 1041.05 402.195 1040.73 401.129C1040.44 400.171 1040.16 399.212 1039.87 398.225C1039.22 395.831 1039.22 395.831 1037 395Z" fill="#B49960"/>
<path d="M157 491C176.14 491 195.28 491 215 491C215 494.96 215 498.92 215 503C207.74 503 200.48 503 193 503C193 524.12 193 545.24 193 567C188.38 567 183.76 567 179 567C179 545.88 179 524.76 179 503C171.74 503 164.48 503 157 503C157 499.04 157 495.08 157 491Z" fill="#0D7E4A"/>
<path d="M905 256C918.53 256 932.06 256 946 256C946 259.3 946 262.6 946 266C936.43 266 926.86 266 917 266C917 270.95 917 275.9 917 281C925.91 281 934.82 281 944 281C944 284.3 944 287.6 944 291C935.09 291 926.18 291 917 291C917 296.28 917 301.56 917 307C926.57 307 936.14 307 946 307C946 310.3 946 313.6 946 317C932.47 317 918.94 317 905 317C905 296.87 905 276.74 905 256Z" fill="#B59960"/>
<path d="M731 256C744.53 256 758.06 256 772 256C772 259.3 772 262.6 772 266C762.43 266 752.86 266 743 266C743 270.95 743 275.9 743 281C751.91 281 760.82 281 770 281C770 284.3 770 287.6 770 291C761.09 291 752.18 291 743 291C743 296.28 743 301.56 743 307C752.57 307 762.14 307 772 307C772 310.3 772 313.6 772 317C758.47 317 744.94 317 731 317C731 296.87 731 276.74 731 256Z" fill="#B59960"/>
<path d="M564 126C565.65 126 567.3 126 569 126C569 230.28 569 334.56 569 442C567.35 442 565.7 442 564 442C564 337.72 564 233.44 564 126Z" fill="#B59960"/>
<path d="M823 258C828.207 261.605 831.999 265.683 833.465 272.004C833.709 273.661 833.864 275.33 834 277C830.04 277 826.08 277 822 277C821.412 275.639 821.412 275.639 820.812 274.25C818.849 270.73 817.42 269.099 814 267C808.774 265.645 804.957 265.837 800 268C795.474 271.664 793.137 275.822 792.18 281.535C791.681 288.368 792.017 295.232 796 301C800.125 305.219 803.069 306.896 809 307C813.904 306.086 816.923 304.988 820 301C820.66 299.35 821.32 297.7 822 296C825.96 296 829.92 296 834 296C833.721 302.563 831.303 307.058 827 312C818.844 318.606 810.165 318.899 800 318C791.939 315.656 787.084 310.944 782.75 303.996C778.301 295.113 778.622 283.346 780.695 273.797C783.367 266.478 787.741 261.038 794.437 257.062C803.303 252.998 814.425 253.478 823 258Z" fill="#B4985F"/>
<path d="M1295 385C1295.91 385.536 1296.82 386.073 1297.75 386.625C1302.08 391.196 1305 396.683 1305 403C1301.04 403 1297.08 403 1293 403C1292.57 402.072 1292.13 401.144 1291.69 400.188C1289.53 396.12 1288.37 394.456 1284 393C1279.12 392.488 1275.15 392.489 1270.63 394.5C1264.93 399.926 1263.73 404.637 1263.5 412.5C1263.72 420.202 1265.07 424.821 1270.25 430.438C1274.68 432.955 1278.52 433.447 1283.45 432.559C1288.33 431.223 1288.33 431.223 1291.5 427.5C1291.67 426.675 1291.83 425.85 1292 425C1292.33 424.01 1292.66 423.02 1293 422C1296.96 422 1300.92 422 1305 422C1304.62 428.032 1302.98 432.384 1299 437C1290.37 443.997 1282.81 444.61 1272 444C1265.96 442.895 1260.96 439.632 1257 435C1250.58 424.494 1249.41 413.195 1251.5 401.129C1252.17 398.946 1252.95 397.024 1254 395C1254.48 394.07 1254.48 394.07 1254.96 393.121C1258.49 387.329 1264.55 383.493 1270.92 381.356C1279.59 379.872 1287.43 380.449 1295 385Z" fill="#B49860"/>
<path d="M1000 130C1003.96 130 1007.92 130 1012 130C1012 137.59 1012 145.18 1012 153C1018.22 152.843 1018.22 152.843 1024.44 152.64C1030.51 152.563 1034.97 153.522 1040 157C1041.84 158.816 1041.84 158.816 1042.94 160.562C1043.32 161.141 1043.7 161.72 1044.09 162.316C1046.63 167.011 1046.43 171.811 1046 177C1044.03 183.328 1040.98 187.204 1035.31 190.622C1031.43 192.239 1028.61 192.343 1024.41 192.293C1023.13 192.285 1021.85 192.278 1020.52 192.27C1018.1 192.229 1018.1 192.229 1015.62 192.188C1010.47 192.126 1005.31 192.064 1000 192C1000 171.54 1000 151.08 1000 130ZM1012 163C1012 169.27 1012 175.54 1012 182C1014.54 182.083 1017.07 182.165 1019.69 182.25C1020.48 182.286 1021.27 182.323 1022.08 182.36C1025.9 182.42 1027.64 182.232 1030.96 180.109C1033.6 177.385 1033.95 176.511 1034.31 172.688C1033.95 168.425 1032.98 166.98 1030 164C1026.81 162.407 1023.37 162.899 1019.88 162.938C1015.98 162.968 1015.98 162.968 1012 163Z" fill="#B59960"/>
<path d="M788 382C821.333 382 821.333 382 827.75 387.25C832.181 392.666 833.532 397.64 833.281 404.508C832.656 410.049 831.195 413.72 827.375 417.812C818.962 423.872 809.949 423.269 800 423C800 429.6 800 436.2 800 443C796.04 443 792.08 443 788 443C788 422.87 788 402.74 788 382ZM800 392C800 398.93 800 405.86 800 413C810.85 413.586 810.85 413.586 819.875 408.25C821.503 404.993 821.378 402.594 821 399C819.776 396.246 818.84 394.573 816.344 392.871C813.084 391.66 810.214 391.811 806.75 391.875C804.523 391.916 802.295 391.957 800 392Z" fill="#B59960"/>
<path d="M1314 382C1317.96 382 1321.92 382 1326 382C1326 389.26 1326 396.52 1326 404C1328.78 403.917 1331.57 403.835 1334.44 403.75C1342.41 403.678 1348.73 404.065 1354.83 409.684C1359.47 414.732 1360.31 418.932 1360.21 425.691C1359.64 431.901 1356.67 436.092 1352 440C1347.3 442.829 1343.87 443.358 1338.41 443.293C1337.13 443.285 1335.85 443.278 1334.52 443.27C1332.1 443.229 1332.1 443.229 1329.62 443.188C1324.47 443.126 1319.31 443.064 1314 443C1314 422.87 1314 402.74 1314 382ZM1326 414C1326 420.27 1326 426.54 1326 433C1328.54 433.083 1331.07 433.165 1333.69 433.25C1334.48 433.286 1335.27 433.323 1336.08 433.36C1339.9 433.42 1341.64 433.232 1344.96 431.109C1347.6 428.385 1347.95 427.511 1348.31 423.688C1347.95 419.412 1347.04 417.952 1344 415C1340.38 413.793 1337.07 413.892 1333.31 413.938C1330.9 413.958 1328.49 413.979 1326 414Z" fill="#B59960"/>
<path d="M967 382C997 382 997 382 1005 386C1009.91 390.912 1011.76 395.003 1012.31 401.875C1012.13 407.745 1010.41 412.334 1006.62 416.812C999.862 422.448 994.323 423.145 985.625 423.062C982.346 423.032 982.346 423.032 979 423C979 429.6 979 436.2 979 443C975.04 443 971.08 443 967 443C967 422.87 967 402.74 967 382ZM979 392C979 398.93 979 405.86 979 413C988.53 413.661 988.53 413.661 997 410C999.233 407.246 999.935 405.517 1000.38 402C999.944 398.55 999.128 396.737 997 394C993.391 391.531 990.022 391.796 985.75 391.875C983.523 391.916 981.295 391.957 979 392Z" fill="#B59960"/>
<path d="M778 130C809.345 130 809.345 130 816.812 134.812C821.198 139.198 822.778 144.166 823.25 150.188C822.821 156.723 821.614 161.993 816.562 166.438C812.576 169.568 809.371 171.261 804.234 171.195C803.432 171.19 802.63 171.185 801.804 171.18C800.796 171.162 799.788 171.144 798.75 171.125C795.533 171.084 792.315 171.043 789 171C789 177.93 789 184.86 789 192C785.37 192 781.74 192 778 192C778 171.54 778 151.08 778 130ZM789 140C789 146.93 789 153.86 789 161C791.372 161.062 793.744 161.124 796.188 161.188C796.925 161.215 797.663 161.242 798.423 161.27C802.834 161.326 805.51 160.703 809 158C811.302 154.338 811.264 151.02 810.613 146.867C809.609 143.809 807.687 142.6 805 141C799.836 139.279 794.407 139.946 789 140Z" fill="#B59960"/>
<path d="M885 130C918.543 130 918.543 130 925.438 136.188C929.51 143.518 930.822 149.721 929 158C926.922 163.797 923.308 167.2 917.918 170.133C913.666 171.396 909.594 171.21 905.188 171.125C902.156 171.084 899.124 171.043 896 171C896 177.93 896 184.86 896 192C892.37 192 888.74 192 885 192C885 171.54 885 151.08 885 130ZM896 140C896 146.93 896 153.86 896 161C905.846 162.009 905.846 162.009 914.875 158.938C917.443 155.387 918.077 153.379 918 149C916.796 145.316 915.664 143.524 912.625 141.125C907.047 139.394 901.825 139.822 896 140Z" fill="#B59960"/>
<path d="M135 491C139.62 491 144.24 491 149 491C149 516.08 149 541.16 149 567C144.38 567 139.76 567 135 567C135 541.92 135 516.84 135 491Z" fill="#0D7E4A"/>
<path d="M730 130C743.2 130 756.4 130 770 130C770 133.3 770 136.6 770 140C760.76 140 751.52 140 742 140C742 157.16 742 174.32 742 192C738.04 192 734.08 192 730 192C730 171.54 730 151.08 730 130Z" fill="#B59960"/>
<path d="M1052 130C1055.96 130 1059.92 130 1064 130C1064 150.46 1064 170.92 1064 192C1060.04 192 1056.08 192 1052 192C1052 171.54 1052 151.08 1052 130Z" fill="#B59960"/>
<path d="M1366 382C1369.63 382 1373.26 382 1377 382C1377 402.13 1377 422.26 1377 443C1373.37 443 1369.74 443 1366 443C1366 422.87 1366 402.74 1366 382Z" fill="#B59961"/>
</g>
<defs>
<clipPath id="clip0_2253_14">
<rect width="1377" height="568" fill="white"/>
</clipPath>
</defs>
</svg>